<?xml version="1.0" standalone="no"?>
<!DOCTYPE svg PUBLIC "-//W3C//DTD SVG 20010904//EN"
 "http://www.w3.org/TR/2001/REC-SVG-20010904/DTD/svg10.dtd">
<svg version="1.0" xmlns="http://www.w3.org/2000/svg"
 width="1580.000000pt" height="1580.000000pt" viewBox="0 0 1580.000000 1580.000000"
 preserveAspectRatio="xMidYMid meet">
<metadata>
Created by potrace 1.11, written by Peter Selinger 2001-2013
</metadata>
<g transform="translate(0.000000,1580.000000) scale(0.100000,-0.100000)"
fill="#000000" stroke="none">
<path d="M8665 14671 c-55 -10 -120 -27 -145 -38 -25 -11 -70 -26 -100 -33
-82 -19 -174 -58 -280 -119 -52 -30 -133 -76 -180 -102 -175 -96 -316 -179
-349 -203 -19 -14 -40 -26 -48 -26 -7 0 -13 -5 -13 -10 0 -6 -51 -63 -112
-128 -78 -82 -136 -155 -188 -236 -41 -65 -101 -151 -132 -192 -48 -61 -58
-80 -58 -113 0 -38 -33 -111 -50 -111 -5 0 -29 -64 -54 -142 -96 -303 -90
-272 -91 -493 0 -399 24 -655 85 -880 41 -148 96 -533 105 -735 3 -47 7 -137
10 -201 3 -63 10 -131 16 -150 6 -19 13 -67 15 -108 3 -41 14 -126 24 -189 11
-63 18 -117 16 -120 -7 -14 33 -270 59 -371 19 -77 25 -124 23 -180 l-3 -76
-35 -3 c-26 -2 -41 -11 -55 -32 -20 -30 -48 -38 -74 -21 -15 10 -72 -6 -83
-22 -8 -13 -38 9 -38 28 0 18 -39 109 -45 103 -2 -2 5 -33 16 -68 11 -36 19
-76 17 -90 -3 -24 -6 -25 -58 -22 -47 3 -58 0 -77 -20 -24 -26 -34 -72 -22
-105 4 -12 4 -34 0 -50 -12 -42 4 -86 49 -132 28 -29 48 -41 68 -41 28 0 46
-24 71 -92 10 -27 -1 -40 -14 -17 -4 5 -18 14 -31 19 -13 5 -24 16 -24 25 0 8
-6 15 -14 15 -7 0 -37 33 -67 73 -29 39 -57 74 -61 75 -4 2 -8 10 -8 19 0 20
-20 38 -53 47 -25 6 -27 4 -27 -24 0 -16 5 -30 10 -30 6 0 10 -5 10 -11 0 -7
9 -20 20 -29 15 -13 17 -19 7 -23 -7 -2 -28 11 -47 29 -19 19 -38 34 -42 34
-4 0 -8 5 -8 11 0 6 -12 24 -27 39 -50 51 -73 79 -73 90 0 5 -5 10 -10 10 -6
0 -16 11 -22 25 -20 45 -28 26 -8 -21 11 -25 20 -50 20 -55 0 -6 8 -18 18 -29
9 -10 30 -44 46 -76 16 -31 38 -66 49 -77 18 -18 18 -20 3 -29 -13 -7 -27 1
-64 41 -27 28 -53 51 -60 51 -7 0 -12 7 -12 15 0 8 -4 15 -9 15 -14 0 -1 -37
20 -56 10 -9 19 -23 19 -31 0 -7 4 -13 9 -13 5 0 12 -11 15 -25 4 -14 11 -25
16 -25 6 0 10 -7 10 -15 0 -8 -5 -15 -12 -15 -16 0 -78 47 -114 88 -31 35 -32
35 -43 14 -13 -25 -51 -30 -51 -7 0 8 -5 15 -10 15 -13 0 -1 -52 14 -62 6 -5
7 -8 1 -8 -5 0 5 -9 23 -20 18 -11 30 -25 27 -30 -9 -15 -44 -12 -61 5 -8 8
-23 20 -32 27 -10 7 -28 28 -41 46 -13 18 -25 31 -28 28 -11 -11 -99 44 -135
83 -21 23 -45 41 -54 41 -9 0 -18 9 -21 20 -3 11 -11 20 -19 20 -7 0 -17 6
-21 13 -8 14 -123 87 -135 87 -4 0 -2 -11 4 -25 9 -19 9 -28 0 -37 -8 -8 -12
-9 -12 -1 0 9 -11 14 -62 28 -5 2 -17 3 -29 4 -12 1 -17 5 -13 13 4 6 3 8 -3
5 -11 -7 -116 45 -140 69 -8 8 -23 14 -33 14 -23 0 -153 115 -173 153 -8 16
-17 27 -20 25 -4 -3 -63 44 -118 95 -10 9 -23 17 -29 17 -5 0 -10 4 -10 8 0 4
-16 26 -36 48 -20 21 -50 57 -67 79 -17 22 -34 42 -37 45 -3 3 -31 35 -63 71
-59 69 -71 95 -38 84 11 -3 22 -1 26 5 3 5 2 10 -4 10 -9 0 -27 38 -23 51 1 4
-9 10 -22 13 -21 5 -42 43 -31 54 9 9 53 -9 79 -33 14 -13 34 -28 44 -33 26
-12 67 -9 65 6 -2 6 6 12 18 12 11 0 17 5 14 10 -12 19 10 10 38 -15 15 -14
27 -23 27 -20 0 3 11 -2 24 -10 23 -15 25 -15 45 11 12 15 21 33 21 40 0 16
36 19 45 4 3 -5 11 -10 17 -10 6 0 5 7 -3 18 -13 16 -13 16 5 2 26 -20 56 -14
83 19 23 26 27 35 24 59 -2 15 33 16 60 2 10 -6 19 -17 19 -24 0 -9 7 -12 21
-9 12 3 18 11 15 19 -4 10 2 14 19 14 13 0 27 5 30 10 4 6 11 8 16 5 12 -8 11
23 -2 86 -9 42 -9 53 2 60 11 7 10 9 -3 9 -10 0 -18 5 -18 11 0 5 5 7 10 4 6
-3 13 1 16 10 4 11 13 14 27 9 24 -8 88 -73 122 -124 37 -56 138 -157 143
-142 2 7 -3 23 -11 36 -9 14 -12 28 -7 36 5 8 6 18 4 22 -6 10 21 39 50 53 12
6 21 15 21 20 0 13 42 55 54 55 5 0 19 12 30 26 15 19 19 37 17 67 -4 49 1 67
20 67 7 0 17 8 23 17 5 10 13 15 16 11 14 -13 33 16 24 35 -8 14 -6 17 11 17
15 0 19 4 13 13 -4 6 -8 28 -9 48 0 35 1 36 23 26 13 -5 23 -13 23 -17 0 -8
46 -7 55 2 4 4 3 13 -1 20 -12 19 -14 38 -3 38 5 0 9 11 9 25 0 14 9 33 20 42
21 18 27 58 10 68 -5 3 -10 11 -10 16 0 6 4 8 9 5 4 -3 13 11 19 32 6 20 20
67 31 105 12 37 21 76 21 87 0 11 4 20 10 20 5 0 7 7 4 15 -4 8 -1 15 5 15 6
0 8 6 5 13 -2 7 4 13 16 14 41 3 81 -83 105 -231 16 -104 39 -175 30 -96 -34
311 -42 354 -95 549 -11 40 -17 84 -14 96 3 13 1 26 -5 29 -6 4 -11 17 -11 30
0 12 -4 26 -10 32 -10 10 -13 51 -7 144 3 54 1 69 -16 90 l-20 25 7 -38 c5
-27 4 -37 -3 -32 -6 3 -11 22 -11 41 0 19 -4 42 -9 52 -14 29 -31 87 -31 110
0 11 -4 24 -10 27 -5 3 -10 15 -10 26 0 10 -4 27 -9 37 -5 9 -26 62 -47 117
-58 157 -164 398 -176 403 -5 2 -8 12 -8 23 0 10 -4 19 -10 19 -5 0 -10 11
-10 24 0 14 -4 28 -10 31 -5 3 -10 15 -10 26 0 10 -4 19 -8 19 -5 0 -15 12
-23 28 -8 15 -26 46 -41 68 -16 23 -28 45 -28 48 0 4 -13 21 -30 39 -16 18
-30 36 -30 40 0 4 -13 22 -30 40 -16 18 -30 40 -30 50 0 9 -18 37 -40 61 -22
24 -40 47 -40 52 -1 5 -32 41 -70 79 -39 39 -70 76 -70 83 0 6 -3 12 -7 12 -5
0 -20 19 -35 43 -15 23 -39 53 -53 67 -14 13 -25 27 -25 32 0 5 -13 23 -30 41
-16 18 -30 36 -30 41 0 12 -281 296 -293 296 -5 0 -20 9 -34 20 -14 11 -33 20
-43 20 -9 0 -25 9 -35 20 -10 11 -23 20 -30 20 -7 0 -20 9 -30 20 -10 11 -23
20 -29 20 -6 0 -29 17 -51 38 -22 21 -56 44 -75 51 -19 7 -51 20 -70 29 -33
14 -72 25 -145 39 -16 3 -42 14 -57 24 -14 11 -40 19 -56 19 -17 0 -34 5 -37
10 -3 6 -21 10 -39 10 -17 0 -37 5 -43 11 -7 7 -46 9 -109 5 -131 -6 -184 -15
-214 -35 -14 -10 -91 -44 -172 -76 -81 -32 -155 -66 -164 -76 -9 -10 -20 -16
-25 -13 -5 3 -51 -53 -103 -123 -85 -114 -103 -147 -172 -308 -42 -99 -80
-182 -84 -185 -12 -8 -34 -89 -65 -235 -9 -44 -21 -100 -27 -125 -5 -25 -11
-63 -14 -85 -10 -81 -12 -85 -47 -85 -18 0 -48 5 -67 11 -19 6 -69 15 -110 20
-41 6 -100 14 -130 19 -30 4 -79 11 -108 15 -29 4 -55 12 -58 16 -7 13 -361
11 -384 -1 -11 -6 -41 -12 -67 -15 -27 -2 -63 -8 -81 -14 -18 -5 -34 -9 -37
-8 -2 1 -14 -6 -25 -16 -21 -18 -163 -120 -290 -209 -133 -94 -420 -377 -420
-415 0 -5 -8 -13 -18 -19 -10 -7 -24 -31 -31 -55 -7 -24 -22 -56 -32 -71 -11
-14 -19 -30 -19 -34 0 -10 -48 -82 -76 -114 -12 -14 -29 -47 -38 -75 -24 -72
-42 -109 -66 -130 -11 -10 -20 -26 -20 -36 0 -10 -5 -21 -10 -24 -6 -4 -8 -10
-5 -15 3 -5 -3 -24 -14 -42 -63 -107 -71 -128 -71 -187 0 -33 -5 -63 -10 -66
-6 -3 -10 -14 -10 -23 0 -9 -14 -44 -31 -77 -27 -55 -30 -69 -30 -162 0 -57 5
-112 11 -122 5 -11 10 -37 11 -58 0 -22 13 -59 30 -88 15 -27 33 -60 38 -72
16 -36 157 -178 264 -266 101 -84 126 -100 292 -187 55 -29 107 -58 115 -64 8
-7 40 -25 70 -40 30 -15 62 -31 70 -36 24 -15 197 -94 300 -138 115 -49 279
-129 300 -147 8 -7 26 -16 39 -20 12 -4 75 -36 140 -72 64 -36 141 -79 171
-96 30 -17 57 -33 60 -37 8 -11 68 -29 75 -22 3 4 9 2 13 -3 10 -14 59 -35 82
-35 11 0 20 -3 20 -7 0 -13 52 -33 81 -33 16 0 43 -9 61 -19 18 -10 47 -22 65
-26 17 -3 37 -13 44 -21 6 -8 20 -14 30 -14 10 0 20 -4 23 -8 3 -5 20 -9 37
-10 17 0 37 -6 42 -11 6 -6 19 -11 29 -11 10 0 18 -4 18 -10 0 -5 6 -10 14
-10 8 0 16 -7 20 -15 3 -8 16 -20 29 -26 34 -15 56 -93 36 -128 -22 -40 -71
-40 -120 -2 -24 20 -49 31 -68 31 -17 0 -31 5 -31 12 0 6 -3 8 -7 5 -3 -4 -15
0 -25 10 -10 9 -18 13 -18 9 0 -4 -12 2 -26 13 -25 20 -27 20 -41 4 -13 -17
-13 -17 -11 2 2 16 -4 21 -30 23 -18 2 -40 -3 -49 -10 -19 -16 -55 -11 -66 8
-4 8 -19 14 -32 14 -14 0 -25 5 -25 10 0 6 -11 10 -24 10 -14 0 -31 6 -38 13
-7 8 -19 12 -26 9 -7 -2 -19 1 -26 7 -8 6 -30 12 -50 13 -20 1 -39 5 -42 10
-3 4 -17 8 -31 8 -18 0 -24 4 -19 15 4 12 -4 15 -39 15 -25 0 -45 4 -45 9 0 5
-19 11 -42 14 -24 3 -65 10 -93 17 -27 6 -72 13 -100 17 -27 3 -55 9 -60 14
-15 11 -316 11 -329 0 -12 -10 -16 -11 -50 -11 -30 0 -96 -66 -96 -97 0 -12
13 -41 29 -65 48 -71 328 -338 456 -435 104 -79 281 -223 366 -298 15 -12 44
-28 65 -35 22 -7 93 -38 159 -71 200 -97 479 -219 501 -219 3 0 3 4 -1 9 -3 5
-29 17 -58 27 -28 9 -84 32 -124 50 -39 19 -76 34 -81 34 -6 0 -12 3 -14 8 -1
4 -16 15 -33 24 -16 9 -30 22 -30 29 0 7 -13 17 -30 24 -74 29 -95 40 -95 52
0 9 -8 11 -24 7 -20 -5 -25 0 -34 25 -7 21 -18 31 -31 31 -11 0 -23 5 -26 11
-4 6 -14 8 -22 5 -21 -8 -73 25 -73 46 0 12 -8 18 -24 18 -25 0 -56 32 -56 58
0 9 5 10 18 3 12 -6 23 -6 28 -1 5 5 22 6 39 2 24 -7 30 -14 29 -36 -1 -25 1
-26 27 -21 21 5 29 3 29 -7 1 -9 4 -8 10 4 11 19 41 14 80 -12 33 -22 72 -32
67 -17 -2 7 -12 11 -21 11 -9 -1 -16 2 -16 7 0 5 -9 9 -21 9 -31 0 -18 23 20
34 21 6 39 5 54 -2 38 -19 70 -25 63 -13 -4 6 -3 11 2 11 6 0 12 -6 15 -14 4
-10 -5 -16 -29 -20 -39 -8 -44 -20 -11 -31 18 -6 15 -9 -23 -15 -25 -5 -53 -6
-62 -3 -24 6 -24 -23 0 -36 13 -7 180 -31 217 -31 3 0 5 9 5 20 0 11 5 20 11
20 6 0 9 -7 5 -15 -10 -26 39 -42 147 -49 46 -2 48 -1 42 21 -4 16 -1 23 9 23
8 0 17 -6 19 -12 3 -8 6 -6 6 5 1 9 6 17 13 17 6 0 8 -3 5 -7 -11 -10 26 -32
53 -33 26 0 113 -30 126 -43 13 -13 24 -7 24 11 0 15 -8 19 -41 20 -33 2 -88
19 -69 22 54 10 88 7 114 -9 17 -10 46 -22 64 -26 17 -3 32 -11 32 -16 0 -10
47 -33 92 -44 21 -5 25 -3 24 13 0 10 -14 30 -30 44 -23 20 -27 28 -19 43 7
11 13 14 17 7 4 -6 29 -14 55 -18 36 -5 48 -10 47 -22 -2 -23 35 -28 51 -6 21
29 16 42 -24 63 -21 11 -51 36 -66 55 -16 19 -48 48 -73 63 -65 42 -59 62 11
33 43 -18 64 -19 58 -2 -4 10 -2 13 5 8 7 -4 21 -4 33 -1 17 6 19 12 14 37 -5
21 -4 28 4 24 6 -4 11 -2 11 4 0 7 -9 14 -20 17 -25 7 -26 19 -2 31 20 11 45
5 36 -9 -3 -5 4 -9 15 -9 12 0 21 -4 21 -9 0 -13 48 -30 110 -40 60 -10 81 -1
60 24 -12 14 -12 18 0 25 11 7 10 11 -3 25 -10 9 -17 27 -17 40 0 23 1 24 82
20 l82 -5 -45 47 c-24 26 -47 50 -51 53 -13 10 -27 59 -19 64 13 8 100 -22
133 -46 28 -20 37 6 23 67 -6 26 -3 33 19 44 21 12 28 12 42 0 9 -8 29 -12 43
-11 21 2 23 1 11 -8 -12 -9 -10 -10 8 -5 30 9 121 -24 133 -47 5 -10 15 -18
21 -18 6 0 3 10 -6 23 -9 12 -21 32 -26 45 -6 13 -15 20 -21 16 -27 -16 -34
63 -8 103 10 17 9 24 -4 44 -17 23 -22 60 -11 72 7 6 37 -9 67 -33 17 -13 20
-13 32 3 17 24 62 22 75 -3 11 -21 35 -27 45 -10 9 14 -13 50 -30 50 -8 0 -15
6 -15 14 0 28 12 46 31 46 19 0 20 15 3 68 -4 15 22 9 68 -14 15 -8 36 -14 48
-14 11 0 37 -8 58 -19 20 -10 48 -21 62 -24 23 -6 25 -4 23 31 -1 20 -8 53
-16 72 -21 52 -30 93 -17 85 5 -3 10 -2 10 4 0 13 53 -2 77 -23 45 -38 181
-182 235 -248 15 -18 70 -77 122 -131 52 -54 98 -107 102 -119 3 -12 22 -38
41 -57 20 -20 43 -47 52 -61 8 -14 24 -31 33 -38 10 -7 18 -19 18 -26 0 -7 14
-25 31 -39 22 -18 30 -31 25 -43 -5 -13 -9 -15 -18 -6 -7 7 -20 12 -29 12 -9
0 -30 13 -47 28 -16 15 -34 26 -39 25 -5 -2 -22 10 -38 27 -16 16 -33 30 -38
30 -11 0 -27 17 -49 51 -9 15 -27 29 -40 31 -13 3 -32 9 -43 13 -11 5 4 -15
33 -43 29 -29 60 -52 68 -52 8 0 14 -5 14 -12 0 -15 80 -98 95 -98 5 0 21 -17
35 -38 29 -43 50 -67 50 -56 0 4 8 -3 19 -14 10 -12 23 -22 29 -22 5 0 13 -7
16 -16 3 -8 10 -13 15 -10 5 3 11 -8 15 -25 9 -46 8 -49 -14 -49 -11 0 -19 5
-17 12 1 6 -11 18 -28 27 -16 9 -32 19 -35 22 -3 3 -21 14 -40 24 -19 10 -37
21 -40 25 -6 9 -50 23 -50 16 0 -13 35 -46 49 -46 8 0 11 -3 8 -6 -4 -4 10
-16 31 -27 55 -30 87 -82 42 -70 -11 3 -17 9 -14 14 3 5 -2 9 -10 9 -9 0 -25
9 -36 20 -12 12 -25 18 -29 15 -5 -2 -14 2 -21 10 -7 8 -20 15 -29 15 -9 0
-28 11 -43 25 -39 36 -98 57 -98 35 0 -5 16 -17 36 -26 20 -9 38 -23 41 -31 3
-7 13 -13 22 -13 10 0 28 -11 40 -24 12 -13 39 -32 59 -42 60 -31 104 -66 92
-74 -14 -9 -60 0 -60 11 0 5 -9 9 -19 9 -11 0 -23 5 -26 10 -3 5 -16 10 -28
10 -18 0 -19 -2 -7 -10 12 -8 9 -10 -12 -10 -27 0 -63 13 -143 51 -47 23 -55
23 -55 5 0 -7 30 -28 68 -47 111 -55 162 -91 162 -115 0 -14 -8 -24 -22 -28
-21 -6 -20 -8 17 -27 22 -12 51 -24 65 -29 14 -4 24 -12 23 -17 -1 -5 11 -7
26 -5 16 2 32 -1 35 -7 6 -10 -13 -16 -36 -12 -5 0 -8 -6 -8 -14 0 -12 -7 -14
-27 -9 -16 4 -29 11 -31 15 -2 4 -13 4 -25 0 -12 -4 -29 -6 -37 -3 -27 9 -6
-6 54 -37 32 -17 69 -31 83 -31 13 0 21 -4 18 -10 -3 -5 0 -10 7 -11 57 -3
118 -23 118 -39 0 -5 -4 -10 -10 -10 -5 0 -10 -5 -10 -11 0 -13 -26 -40 -33
-33 -10 10 -87 13 -87 4 0 -6 7 -10 15 -10 9 0 26 -6 38 -14 12 -8 39 -17 60
-20 36 -7 47 -19 27 -31 -19 -12 -11 -33 10 -28 11 3 20 12 20 19 0 19 26 18
34 -2 4 -12 2 -15 -9 -10 -9 3 -15 0 -15 -8 0 -21 -43 -46 -62 -35 -8 4 -39
13 -69 18 -30 5 -64 12 -76 16 -14 4 -23 3 -23 -3 0 -5 37 -24 83 -42 45 -18
88 -38 96 -44 11 -8 13 -8 7 2 -10 17 0 15 19 -5 14 -14 18 -14 26 -2 7 11 10
9 15 -9 4 -14 12 -21 20 -18 20 8 44 -4 44 -20 0 -8 5 -14 11 -14 8 0 7 -5 -1
-15 -7 -9 -19 -14 -27 -11 -7 3 -13 0 -13 -6 0 -6 -9 -3 -20 7 -10 9 -18 22
-17 29 1 6 -5 11 -13 11 -8 0 -21 5 -29 9 -11 7 -13 5 -8 -8 4 -10 7 -21 7
-26 0 -5 10 -11 23 -13 21 -4 21 -4 -3 -6 -14 -1 -32 -6 -40 -11 -12 -8 -9
-10 12 -10 16 0 39 -10 54 -23 14 -12 27 -20 29 -17 1 3 11 -2 21 -11 11 -9
29 -20 42 -24 32 -9 15 -28 -22 -22 -31 4 -50 -3 -93 -34 -20 -15 -21 -18 -6
-23 13 -5 14 -9 4 -19 -10 -9 -15 -8 -25 6 -14 18 -46 24 -46 7 0 -5 -7 -10
-15 -10 -8 0 -15 4 -15 9 0 6 -13 6 -32 0 -50 -16 -62 -15 -63 1 0 9 -10 16
-25 17 -14 1 -18 0 -7 -3 9 -3 17 -10 17 -15 0 -6 -4 -8 -8 -5 -9 6 -162 18
-207 17 -16 -1 -54 8 -84 19 -53 19 -84 16 -93 -10 -2 -6 -42 -12 -96 -13
-191 -4 -64 -26 193 -33 132 -3 201 -10 310 -29 17 -3 40 -6 53 -6 12 -1 22
-5 22 -10 0 -6 8 -5 19 1 11 5 22 6 25 1 3 -4 27 -9 53 -11 77 -3 98 -6 111
-14 7 -4 46 -10 87 -13 41 -3 75 -10 75 -14 0 -5 -7 -5 -17 -2 -10 4 -14 2
-10 -4 5 -7 -1 -9 -14 -6 -16 4 -20 2 -17 -8 3 -8 12 -13 22 -11 11 2 16 -4
16 -23 0 -15 7 -28 18 -32 16 -6 32 -22 32 -33 0 -3 -20 -12 -45 -19 -59 -17
-67 -32 -14 -27 51 5 89 -11 89 -37 0 -13 -5 -17 -15 -13 -9 3 -15 0 -15 -9 0
-10 -11 -15 -32 -15 -18 -1 -44 -7 -58 -15 l-25 -14 30 -1 c17 -1 54 -1 82 0
38 1 58 -3 70 -15 15 -16 15 -18 0 -26 -10 -6 -14 -16 -10 -26 4 -11 3 -14 -5
-9 -13 8 -52 -10 -52 -24 0 -6 29 -10 64 -10 l64 0 -13 -37 c-11 -29 -19 -37
-34 -36 -13 2 -21 -3 -21 -12 0 -8 -4 -15 -10 -15 -5 0 -10 -5 -10 -11 0 -6 9
-9 19 -6 31 8 43 -6 29 -35 -8 -15 -36 -38 -70 -56 -65 -34 -61 -41 17 -32 29
3 57 4 63 2 14 -4 4 -32 -12 -32 -6 0 -21 -8 -33 -18 -23 -17 -22 -17 27 -14
40 3 50 1 50 -11 0 -9 3 -22 6 -31 4 -10 1 -16 -9 -16 -26 0 -38 -24 -22 -46
12 -17 17 -17 35 -6 27 16 35 10 22 -15 -8 -15 -6 -22 9 -31 11 -7 24 -10 29
-7 6 4 10 0 10 -9 0 -8 -16 -20 -36 -26 -27 -9 -33 -15 -23 -21 10 -6 8 -9 -8
-9 -13 0 -23 -4 -23 -10 0 -5 -6 -10 -13 -10 -8 0 -22 -9 -32 -20 -15 -17 -16
-20 -3 -20 19 0 115 39 143 57 28 18 35 16 35 -10 0 -24 -27 -57 -46 -57 -6 0
-23 -15 -40 -32 -16 -18 -22 -27 -14 -20 8 6 21 12 30 12 8 0 42 14 75 30 33
16 66 30 73 30 6 0 12 5 12 10 0 6 16 10 35 10 26 0 33 -4 29 -14 -5 -13 1
-13 46 -1 29 8 57 12 64 9 14 -5 15 -32 1 -54 -5 -8 -8 -23 -7 -33 6 -31 -85
-137 -117 -137 -12 0 -21 -6 -21 -15 0 -9 -12 -27 -27 -40 -26 -22 -30 -22
-50 -9 -20 13 -23 13 -23 0 0 -8 8 -20 18 -25 14 -9 12 -11 -15 -17 -18 -3
-33 -12 -33 -18 0 -7 -13 -22 -30 -34 -16 -13 -30 -18 -30 -12 0 5 -9 10 -19
10 -14 0 -18 -5 -14 -20 4 -15 0 -20 -16 -20 -12 0 -20 -4 -17 -8 6 -9 -60
-72 -75 -72 -4 0 -13 -9 -19 -20 -6 -11 -17 -20 -24 -20 -8 0 -16 -7 -20 -15
-3 -8 -13 -15 -21 -15 -9 0 -14 -4 -11 -9 4 -5 0 -12 -6 -14 -7 -3 -4 -6 8 -6
11 -1 29 8 38 18 10 11 28 22 42 25 13 4 24 11 24 16 0 6 8 10 18 10 9 0 23 9
29 19 12 18 88 39 121 32 7 -1 12 2 11 6 -5 32 2 45 25 41 17 -3 23 -1 19 8
-3 9 2 11 16 7 25 -6 26 -12 4 -43 l-17 -25 26 18 c38 24 87 23 96 -4 8 -20 9
-20 20 6 10 21 18 26 40 23 24 -3 27 -7 24 -35 -2 -18 0 -33 5 -33 17 0 53 31
53 46 0 8 6 14 13 14 6 0 23 12 36 25 27 29 57 34 46 8 -15 -37 -16 -48 -5
-30 6 9 16 14 22 11 7 -5 9 -2 6 7 -20 48 -20 54 1 29 11 -14 30 -25 43 -25
18 0 22 -5 20 -24 -3 -33 -8 -36 -27 -21 -17 14 -31 8 -20 -9 3 -6 11 -9 16
-6 5 4 9 -3 9 -14 0 -12 -4 -21 -9 -21 -5 0 -12 -11 -15 -24 -3 -13 -9 -32
-13 -42 -6 -16 -4 -16 20 2 14 10 27 27 27 37 0 10 13 31 30 47 16 16 32 40
36 54 6 24 24 37 24 17 0 -5 14 -11 30 -14 18 -4 30 -13 30 -22 0 -9 -4 -13
-10 -10 -6 4 -10 -7 -9 -27 1 -18 3 -25 6 -15 7 25 22 21 29 -8 6 -25 36 -36
33 -12 -3 25 1 37 15 37 16 0 13 -26 -12 -98 -10 -30 -22 -50 -27 -45 -5 4 -4
1 3 -9 9 -11 10 -18 2 -23 -5 -3 -10 -1 -10 6 0 10 -3 10 -12 1 -10 -10 -10
-15 1 -21 10 -7 11 -13 2 -30 -9 -16 -9 -19 1 -15 18 7 47 49 51 73 2 11 6 24
10 27 4 4 7 20 7 35 0 19 6 28 22 32 12 4 25 1 29 -5 4 -6 14 0 24 16 22 32
43 20 25 -14 -6 -12 -9 -28 -6 -35 3 -8 -3 -24 -13 -37 -18 -23 -46 -126 -37
-136 3 -2 15 18 27 44 11 27 27 62 35 77 8 16 14 35 14 42 0 8 9 19 20 25 13
7 20 21 20 40 0 20 5 30 15 30 18 0 31 -46 17 -63 -5 -6 -12 -31 -15 -54 -5
-46 9 -57 33 -28 9 10 9 15 1 15 -16 0 -13 51 4 74 21 27 36 12 23 -25 -6 -16
-8 -33 -4 -36 3 -3 9 8 12 24 6 29 39 62 76 75 24 10 29 -1 13 -33 -17 -32
-20 -79 -5 -79 6 0 10 9 10 19 0 10 6 21 14 24 9 4 14 18 14 35 -1 16 6 40 16
53 9 13 16 31 16 40 0 9 7 19 15 23 8 3 15 12 15 21 0 8 9 15 20 15 11 0 20 7
20 15 0 8 5 15 10 15 6 0 10 -9 10 -20 0 -11 4 -20 9 -20 11 0 32 25 30 36 -7
39 22 63 35 29 6 -17 -2 -45 -14 -45 -12 0 -19 -39 -13 -76 4 -25 18 -45 48
-70 42 -34 43 -34 83 -20 38 14 41 13 61 -10 12 -13 21 -28 21 -32 0 -4 12 -9
26 -10 15 -1 33 -7 40 -12 8 -8 14 -7 17 2 3 7 6 -2 6 -19 1 -26 5 -33 21 -33
17 0 20 -7 21 -47 1 -27 2 -52 4 -58 1 -5 3 -14 4 -20 1 -5 6 -3 11 5 7 11 10
7 10 -17 0 -18 4 -33 9 -33 6 0 6 -12 0 -32 -11 -41 -11 -41 4 -32 9 6 9 4 -1
-8 -18 -23 -6 -46 22 -41 28 6 56 -28 56 -65 0 -19 4 -23 19 -19 12 3 22 -1
25 -9 8 -20 -4 -44 -20 -44 -8 0 -14 -5 -14 -11 0 -7 10 -5 25 5 29 19 33 8
15 -38 -6 -17 -6 -26 1 -26 5 0 14 -10 19 -22 9 -20 10 -18 7 14 -1 20 1 34 5
32 4 -3 8 -15 8 -28 0 -12 4 -26 9 -32 5 -5 12 -35 15 -67 3 -31 7 -61 11 -66
3 -5 7 -33 10 -63 3 -29 8 -63 10 -75 9 -41 21 -24 22 32 2 67 11 85 30 60 7
-11 13 -24 13 -29 0 -6 -5 -4 -10 4 -8 13 -10 13 -10 -2 0 -9 5 -20 10 -23 6
-3 10 -22 10 -40 0 -26 3 -33 15 -29 18 7 18 8 5 -35 -8 -29 -7 -33 8 -29 14
4 16 -2 13 -39 -4 -56 5 -104 25 -129 14 -18 15 -17 9 14 -4 17 -4 32 -1 32
12 0 51 -25 59 -37 4 -7 14 -10 22 -7 8 4 15 1 15 -6 0 -6 -4 -8 -10 -5 -5 3
-10 1 -10 -5 0 -17 31 -24 41 -9 5 8 9 10 9 5 0 -5 -7 -17 -15 -26 -17 -18
-10 -53 9 -47 15 5 36 -18 36 -38 0 -12 5 -15 18 -10 13 5 14 3 6 -5 -9 -9
-18 -8 -38 5 -25 17 -26 17 -26 -2 0 -11 10 -28 22 -39 12 -10 18 -13 14 -6
-10 16 9 16 23 -1 8 -10 7 -17 -1 -25 -9 -9 -7 -12 10 -12 15 0 22 -6 22 -19
0 -10 14 -45 30 -76 17 -31 30 -63 30 -70 0 -7 7 -15 15 -19 8 -3 15 -10 15
-15 0 -6 -7 -8 -15 -5 -8 4 -15 2 -15 -2 0 -15 14 -30 33 -37 10 -4 15 -11 12
-17 -3 -5 0 -7 8 -4 17 6 32 -37 16 -47 -6 -4 2 -15 19 -28 19 -13 33 -17 37
-11 12 19 26 10 19 -12 -11 -37 -26 -38 -59 -4 -33 36 -55 37 -54 3 0 -21 1
-21 8 -2 8 19 8 19 19 -2 13 -24 16 -63 5 -63 -5 0 -9 -11 -9 -25 -1 -18 3
-25 17 -26 10 -1 27 -2 37 -3 16 -1 52 -36 52 -51 0 -10 28 -35 39 -35 6 0 11
-6 11 -12 0 -8 -14 -13 -33 -14 -17 -1 -27 1 -21 3 7 2 4 19 -9 48 -16 36 -23
42 -34 33 -8 -6 -11 -18 -8 -27 3 -9 -10 2 -29 24 -20 22 -38 48 -42 58 -3 11
-14 17 -26 15 -12 -2 -23 3 -26 11 -3 10 0 12 11 8 15 -5 15 -3 0 29 -9 19
-22 32 -27 29 -6 -3 -19 -8 -28 -11 -10 -4 -18 -13 -18 -20 0 -17 -16 -18 -26
-2 -4 7 -3 8 4 4 8 -5 12 1 12 15 0 12 3 19 7 16 3 -4 12 -2 19 3 17 15 5 50
-17 50 -23 0 -26 38 -4 46 22 9 18 24 -5 24 -20 0 -20 1 -5 31 9 17 13 34 9
37 -4 4 -9 1 -11 -5 -3 -7 -19 -13 -38 -13 -18 0 -38 -7 -45 -15 -9 -11 -9
-15 -1 -15 8 0 9 -5 3 -16 -13 -24 -3 -54 19 -54 16 0 24 15 21 41 -1 4 8 5
19 2 19 -5 19 -6 2 -25 -17 -19 -17 -20 0 -33 19 -14 18 -52 -3 -65 -11 -6 -9
-17 9 -55 12 -25 19 -50 16 -54 -3 -5 2 -12 11 -15 9 -3 14 -13 10 -21 -3 -9
3 -19 14 -25 11 -6 20 -21 20 -33 0 -12 11 -35 25 -50 14 -15 21 -27 15 -27
-5 0 -20 16 -32 35 -22 34 -38 45 -38 26 0 -6 5 -13 11 -16 5 -4 8 -12 6 -18
-1 -5 7 -21 20 -35 13 -14 23 -31 23 -39 0 -7 5 -22 12 -33 20 -32 -1 -36 -30
-6 -19 20 -22 27 -9 23 9 -4 17 -3 17 1 0 11 -61 47 -81 48 -9 1 -22 5 -29 9
-10 6 -12 -1 -7 -34 4 -34 3 -41 -9 -37 -8 3 -21 9 -29 12 -8 3 -15 1 -15 -5
0 -6 -12 -11 -26 -11 -14 0 -23 4 -19 9 3 5 1 12 -4 16 -6 3 -9 -11 -8 -36 1
-27 -3 -44 -11 -46 -7 -3 -11 1 -10 9 2 7 -4 13 -12 13 -8 0 -18 5 -22 10 -5
6 -8 6 -8 -2 0 -6 4 -14 9 -17 5 -3 7 -14 4 -25 -4 -17 -6 -17 -28 5 -13 13
-29 24 -35 24 -5 0 -10 10 -10 23 0 12 -9 28 -21 35 -11 7 -19 21 -18 30 3 30
-1 43 -10 37 -10 -6 -13 -78 -5 -108 3 -9 9 -15 14 -12 14 9 18 -20 4 -33 -13
-12 -18 -8 -15 11 0 4 -3 7 -8 7 -12 0 -24 -37 -17 -49 4 -5 9 -34 12 -64 7
-59 -7 -83 -30 -51 -8 10 -20 15 -29 11 -8 -3 -21 1 -27 9 -14 16 -40 19 -40
4 0 -5 5 -10 10 -10 6 0 10 -12 10 -27 0 -16 -4 -23 -8 -17 -4 5 -16 10 -28
10 -16 0 -19 -5 -16 -23 5 -28 -14 -31 -21 -3 -3 13 -14 20 -29 20 -18 0 -27
10 -43 45 -10 24 -21 42 -23 40 -3 -2 -13 0 -23 6 -21 11 -21 10 -34 -46 -5
-19 -9 -25 -13 -15 -3 8 -11 21 -19 28 -7 7 -13 23 -14 35 0 12 -4 31 -9 42
-6 13 -7 -2 -4 -42 l5 -63 -25 11 c-13 6 -26 19 -29 29 -4 15 -57 36 -81 31
-5 -1 -6 5 -3 14 8 19 -3 19 -29 1 -15 -12 -17 -17 -6 -27 6 -7 12 -16 12 -20
0 -14 -66 -3 -85 14 -19 17 -20 17 -36 -4 -11 -15 -18 -18 -24 -10 -4 7 -13
10 -20 7 -7 -2 -15 3 -17 12 -3 10 -14 18 -26 19 -15 1 -32 -15 -63 -63 -40
-59 -51 -68 -87 -67 -7 1 -23 -12 -34 -28 -12 -16 -25 -29 -29 -29 -4 0 -10
23 -14 50 -6 44 -10 50 -30 50 -13 0 -25 -7 -29 -15 -3 -8 -12 -15 -21 -15
-17 0 -39 46 -31 67 6 15 -10 18 -19 3 -3 -5 -18 -10 -33 -10 -49 0 -71 -11
-81 -42 -15 -44 -45 -34 -49 16 -1 21 -7 47 -13 58 -5 10 -7 27 -4 38 4 14 0
19 -17 22 -15 2 -21 9 -19 18 10 36 12 90 3 90 -5 0 -15 -20 -22 -45 -14 -50
-27 -65 -36 -41 -11 28 -47 17 -88 -26 -22 -24 -39 -46 -38 -50 1 -5 -5 -8
-13 -8 -8 0 -17 11 -21 25 -4 18 -15 26 -40 31 -27 5 -34 11 -34 30 0 27 -16
40 -27 21 -4 -7 -16 -17 -27 -20 -16 -7 -18 -4 -12 23 3 19 2 29 -4 25 -6 -3
-10 -13 -10 -21 0 -25 -21 -15 -32 16 -5 17 -19 35 -29 41 -10 5 -19 19 -19
29 0 11 -9 29 -21 41 -20 20 -21 20 -40 3 -11 -10 -36 -23 -56 -30 -31 -11
-38 -11 -48 2 -10 14 -12 14 -24 0 -22 -26 -41 -19 -41 14 0 17 -6 39 -12 50
-10 15 -10 27 -1 50 17 44 -1 36 -22 -10 -10 -22 -22 -40 -27 -40 -4 0 -16 -8
-27 -19 -25 -25 -71 -36 -71 -17 0 8 -5 16 -12 18 -9 3 -9 11 1 35 7 17 11 39
10 49 -2 11 0 25 4 32 9 13 1 32 -13 32 -6 0 -20 -16 -32 -35 -13 -19 -31 -35
-40 -35 -9 0 -19 -8 -21 -17 -4 -14 -5 -12 -6 5 0 12 4 22 9 22 12 0 12 47 0
75 -7 17 -9 17 -9 3 -1 -20 -16 -24 -26 -8 -3 6 -15 10 -26 10 -12 0 -19 7
-19 20 0 10 -9 24 -19 30 -28 14 -36 12 -21 -5 10 -12 10 -15 -4 -15 -19 0
-21 21 -4 38 10 10 10 15 -2 22 -9 6 -19 5 -24 0 -22 -22 -39 -11 -32 21 3 18
1 38 -5 45 -8 10 -6 20 10 40 20 25 20 27 4 40 -23 18 -42 17 -49 0 -8 -22
-29 -26 -59 -13 -21 10 -25 17 -21 40 5 22 2 27 -15 27 -16 0 -19 5 -14 19 4
14 0 23 -15 31 -24 13 -25 23 -5 44 21 20 19 46 -4 46 -12 0 -21 9 -25 25 -4
14 -11 23 -16 20 -15 -9 -23 15 -10 30 11 13 7 15 -23 15 -20 0 -43 -7 -51
-16 -9 -8 -20 -13 -26 -9 -5 3 -18 0 -29 -7 -11 -7 -23 -9 -27 -6 -11 12 7 28
30 28 13 0 29 6 35 14 9 11 5 15 -19 19 -30 7 -80 -9 -80 -25 0 -12 -28 -10
-32 3 -2 6 -16 12 -31 12 -15 0 -27 3 -27 7 0 5 -14 11 -30 15 -17 4 -30 11
-30 16 0 6 -3 8 -8 5 -4 -2 -6 14 -4 36 3 22 -1 45 -7 51 -15 15 -50 16 -44 1
3 -8 -21 -20 -66 -34 -39 -13 -71 -28 -71 -34 0 -6 -12 1 -25 16 -28 33 -52
35 -125 11 -42 -14 -56 -14 -72 -4 -12 7 -32 10 -50 6 -28 -7 -29 -6 -18 15 6
11 19 24 28 27 18 6 72 63 72 76 0 14 -24 7 -57 -19 -18 -14 -37 -23 -42 -20
-7 5 -7 132 0 162 1 5 -1 17 -6 27 -4 10 -2 30 5 47 6 16 9 34 5 40 -4 6 -1
18 7 27 10 13 10 17 0 20 -6 3 -10 8 -8 11 2 4 1 25 -3 47 -5 30 -3 43 8 52
14 10 14 14 -3 32 -11 12 -19 37 -20 63 l-1 43 -42 -3 c-34 -3 -43 0 -43 12 0
9 5 16 10 16 18 0 11 35 -11 53 -11 10 -18 24 -16 32 4 8 -5 15 -23 18 -17 4
-31 15 -35 27 -3 11 -17 22 -31 25 -79 16 -76 15 -71 40 3 19 0 25 -14 25 -10
0 -21 -4 -24 -10 -3 -5 -13 -10 -22 -10 -13 0 -13 3 -3 15 7 8 10 22 6 30 -3
9 1 18 9 21 8 4 15 12 15 19 0 7 10 15 22 18 18 5 19 8 8 22 -7 9 -21 13 -31
10 -13 -4 -19 -1 -19 9 0 10 9 16 25 16 14 0 25 6 25 13 0 19 -42 39 -76 36
-74 -6 -81 -2 -87 44 -6 38 -4 44 25 69 38 33 33 64 -8 54 -25 -7 -26 -6 -19
34 6 38 6 40 -19 40 -14 0 -26 5 -26 10 0 6 -10 10 -22 11 l-23 0 21 9 c30 12
37 26 29 58 -4 21 -15 32 -40 41 -40 14 -44 26 -15 41 11 6 20 17 20 25 0 7 6
16 13 18 6 3 -1 6 -16 6 -15 1 -30 7 -33 15 -7 19 14 57 29 54 12 -2 87 28 87
34 0 2 -48 4 -106 5 -113 1 -167 15 -162 42 2 9 11 15 21 13 10 -2 17 4 17 14
0 9 8 23 18 30 15 13 15 14 -8 11 -19 -1 -25 2 -23 16 1 15 -4 18 -24 14 -14
-2 -44 2 -66 11 -53 20 -52 19 -37 37 10 12 10 15 -2 15 -8 0 -30 8 -49 17
-19 10 -42 16 -52 15 -9 -2 -25 4 -34 13 -14 15 -14 18 0 32 8 8 29 16 46 18
17 1 34 5 38 9 3 3 17 6 29 6 29 0 94 38 94 55 0 7 -15 15 -32 18 -81 13 -148
38 -148 56 0 10 -9 26 -21 37 -14 13 -19 27 -17 46 3 21 0 29 -14 34 -11 3
-23 17 -29 31 -7 19 -15 24 -30 20 -12 -3 -22 0 -26 9 -3 8 -14 14 -25 14 -17
0 -18 2 -4 15 17 17 42 20 51 5 5 -8 11 -7 21 1 15 13 49 4 39 -10 -3 -6 8 -5
27 1 18 5 41 10 50 10 10 -1 20 4 23 9 4 5 17 6 30 3 31 -8 38 8 18 44 -21 37
-75 74 -111 77 -40 3 -41 3 -35 25 3 11 12 20 19 20 17 0 18 22 3 37 -9 9 -6
10 10 6 15 -4 21 -1 19 8 -2 9 5 13 20 11 17 -3 22 2 22 17 0 17 -6 21 -35 21
-19 0 -35 4 -35 9 0 5 11 8 25 5 14 -2 25 0 25 5 0 13 -25 20 -49 14 -15 -4
-21 -1 -21 12 0 11 5 15 14 12 22 -9 28 5 8 19 -16 12 -15 13 6 14 32 0 28 32
-8 58 -16 12 -34 22 -39 22 -5 0 -13 5 -16 10 -4 6 -1 9 7 8 8 -2 12 4 10 15
-2 9 2 17 9 17 8 0 8 4 -1 15 -7 9 -19 14 -27 11 -7 -3 -26 9 -42 26 -24 27
-27 35 -17 59 9 24 7 32 -14 54 -13 14 -29 24 -36 21 -15 -6 -25 64 -11 82 17
21 -2 26 -24 6 -16 -14 -23 -15 -26 -6 -3 6 -17 13 -31 13 -24 2 -24 2 -4 6
24 5 29 18 10 27 -7 3 0 2 16 -1 l29 -6 -22 22 c-11 11 -21 25 -21 30 0 14
-33 23 -40 11 -5 -7 -18 0 -38 19 l-30 31 41 -6 c23 -3 71 -15 106 -25 35 -11
65 -18 67 -16 2 2 -38 21 -89 42 -444 185 -623 253 -1002 380 -143 47 -272 95
-287 106 -15 10 -37 19 -49 19 -13 0 -41 8 -63 18 -23 11 -70 25 -106 31 -36
7 -69 17 -74 22 -6 5 -25 9 -44 9 -38 0 -119 17 -144 31 -10 5 -33 9 -52 9
-19 0 -38 5 -41 11 -8 12 -316 11 -355 -2 -14 -5 -36 -10 -50 -11 -14 -2 -29
-6 -35 -9 -5 -4 -41 -17 -80 -29 -38 -13 -79 -29 -90 -37 -11 -7 -37 -18 -58
-24 -27 -7 -62 -34 -120 -92 -149 -150 -178 -206 -198 -381 -6 -55 -17 -122
-25 -148 -19 -65 -18 -206 2 -254 9 -22 59 -81 117 -139 98 -97 105 -102 177
-124 41 -12 105 -31 142 -42 36 -11 115 -43 175 -73 90 -44 115 -52 150 -48
23 2 66 -1 95 -8 29 -6 82 -16 118 -21 61 -9 104 -14 370 -38 58 -6 106 -10
108 -10 1 -1 2 -12 2 -25 0 -22 -9 -27 -83 -50 -45 -15 -102 -34 -127 -42 -31
-12 -107 -19 -250 -25 -218 -9 -448 -22 -700 -39 -85 -6 -254 -13 -375 -16
-148 -4 -227 -10 -240 -18 -24 -15 -118 -46 -139 -46 -8 0 -44 -29 -80 -64
l-65 -64 -16 -89 c-8 -48 -18 -132 -22 -186 -3 -54 -10 -100 -14 -103 -5 -3 8
-28 29 -57 59 -81 169 -253 196 -305 30 -60 56 -146 56 -188 0 -18 13 -54 29
-81 95 -159 131 -223 131 -233 0 -7 28 -42 63 -78 83 -88 264 -296 302 -347
47 -64 123 -142 215 -219 47 -40 100 -86 119 -104 19 -17 37 -30 40 -30 3 1
20 -5 36 -13 22 -10 75 -14 202 -14 154 0 174 2 185 18 9 12 20 16 32 11 17
-7 18 -16 12 -113 -4 -58 -12 -123 -17 -144 -26 -99 94 -259 300 -401 123 -85
132 -90 196 -116 28 -12 67 -30 88 -40 22 -11 50 -20 63 -20 14 0 45 -9 70
-20 43 -20 59 -21 312 -16 295 4 391 13 419 37 10 9 54 29 98 44 44 15 91 33
105 40 14 7 64 25 110 40 47 14 112 34 146 45 33 10 101 26 150 35 113 21 170
40 267 87 43 21 82 38 87 38 5 0 43 20 83 45 41 25 80 45 86 45 6 0 11 6 11
13 0 38 81 65 94 31 9 -23 7 -73 -3 -92 -5 -9 -12 -60 -15 -112 -9 -147 -20
-233 -34 -257 -14 -25 -16 -99 -3 -107 4 -3 11 -38 15 -78 5 -65 14 -94 49
-162 18 -36 47 -129 47 -151 0 -12 9 -32 20 -45 11 -13 20 -30 20 -39 0 -9 6
-28 14 -42 7 -14 21 -59 31 -100 14 -59 25 -82 56 -114 44 -47 164 -275 201
-385 14 -41 33 -109 42 -151 15 -66 22 -81 61 -119 25 -24 45 -52 45 -63 0
-29 49 -122 86 -165 12 -13 27 -43 34 -66 30 -100 150 -301 292 -488 32 -42
63 -87 69 -101 12 -25 174 -165 258 -221 27 -19 84 -48 127 -66 44 -17 93 -38
109 -46 17 -7 84 -27 150 -44 66 -17 158 -46 204 -65 49 -20 89 -31 95 -26 6
4 44 7 83 6 76 -2 113 -20 113 -54 0 -12 24 -21 101 -38 60 -13 139 -40 197
-67 53 -25 135 -54 182 -66 47 -12 104 -30 127 -41 38 -18 57 -20 185 -16 79
3 170 10 203 16 33 7 106 14 161 17 93 6 103 8 114 29 13 25 37 35 86 35 41 0
120 28 162 57 19 12 47 23 61 23 14 0 62 18 106 40 44 22 86 40 93 40 19 0 83
30 105 48 19 16 42 31 97 58 85 43 165 113 186 163 20 48 18 110 -6 146 -13
19 -20 47 -20 78 l0 49 78 -6 c42 -2 96 -8 119 -11 38 -6 49 -3 95 28 29 19
69 51 87 71 19 20 40 36 47 36 7 0 14 3 16 8 2 4 37 39 78 77 41 39 73 74 72
79 -2 5 28 41 65 81 105 112 235 274 238 298 4 29 34 98 50 117 24 27 87 308
96 428 5 62 11 117 14 122 3 4 0 10 -6 12 -6 2 -13 34 -16 71 -3 37 -10 67
-15 67 -6 0 -8 7 -4 15 3 8 0 15 -7 15 -9 0 -11 -13 -9 -41 5 -49 -13 -76 -24
-35 -3 14 -10 26 -15 26 -17 0 -9 40 10 52 19 12 19 12 0 36 -10 14 -19 31
-19 39 0 26 -31 77 -40 64 -5 -9 -9 -8 -13 4 -4 9 -3 13 3 10 14 -8 13 22 -2
63 -11 30 -11 35 6 48 17 12 23 12 42 -1 13 -8 30 -15 39 -15 8 0 15 -4 15 -9
0 -5 9 -11 20 -14 12 -3 20 -14 20 -26 0 -24 15 -53 50 -98 14 -17 36 -48 50
-70 76 -116 431 -427 648 -567 180 -117 422 -209 656 -250 44 -8 116 -26 158
-40 42 -14 84 -26 92 -26 9 0 16 -3 16 -8 0 -13 64 -41 105 -46 70 -7 129 -18
149 -29 11 -5 54 -11 97 -13 42 -2 129 -15 193 -28 75 -17 177 -29 293 -36 98
-6 186 -13 196 -16 10 -3 81 5 158 17 119 20 147 21 195 11 36 -7 63 -8 80 -2
14 6 60 10 103 10 43 0 91 4 107 9 16 5 56 15 89 22 33 7 80 22 105 34 25 12
83 37 130 55 47 18 89 37 95 42 5 4 19 8 30 8 12 0 30 12 42 28 14 19 30 28
54 30 33 2 63 27 54 42 -7 11 18 56 43 77 11 10 22 29 24 43 2 14 11 31 22 39
10 8 37 53 59 100 22 47 55 110 73 139 19 29 34 54 34 57 0 2 24 27 54 55 52
50 79 101 57 108 -12 4 -15 121 -3 137 25 35 40 36 89 11 26 -14 77 -32 113
-42 36 -9 74 -21 86 -26 31 -14 203 8 291 37 109 37 199 85 380 202 l163 106
78 116 c66 98 81 128 96 190 9 41 27 93 40 115 15 27 31 84 45 171 25 143 49
229 91 320 15 33 39 103 54 155 17 60 59 161 116 277 152 306 189 454 170 674
-5 67 -12 131 -15 143 -2 11 -25 129 -50 261 -26 132 -57 290 -70 350 -12 61
-23 117 -23 125 1 20 -65 195 -108 289 -58 126 -141 235 -325 431 -221 233
-348 348 -559 507 -235 177 -437 275 -790 387 -80 25 -179 59 -219 76 -68 28
-83 30 -197 30 -67 0 -129 3 -138 6 -10 4 -16 18 -16 35 0 22 6 30 24 35 13 3
39 21 57 40 18 19 37 34 42 34 5 0 22 11 39 25 16 14 35 25 42 25 8 0 23 28
36 63 12 34 58 130 101 212 54 105 83 172 93 220 17 83 32 253 21 243 -4 -4
-20 1 -35 12 -18 13 -44 20 -75 20 -28 0 -52 6 -61 15 -9 8 -26 15 -39 15 -44
0 -75 18 -75 44 0 41 9 44 200 73 19 3 46 14 59 24 13 11 31 19 41 19 33 0
128 240 176 446 27 113 28 131 28 369 0 247 -1 252 -32 385 -18 74 -37 158
-44 185 -14 65 -46 146 -65 167 -9 10 -19 37 -24 60 -5 24 -22 92 -37 152 -24
92 -32 111 -54 122 -16 9 -29 25 -32 44 -3 16 -8 42 -11 58 -3 15 -18 41 -33
57 -15 17 -35 46 -45 66 -9 20 -23 42 -32 49 -8 7 -15 17 -15 23 0 15 -255
270 -315 315 -27 21 -71 49 -97 62 -27 14 -48 28 -48 32 0 5 -7 8 -16 8 -9 0
-46 32 -82 71 -70 75 -108 104 -208 155 -69 35 -127 50 -233 60 -40 3 -92 15
-115 25 -23 10 -82 23 -131 28 -147 16 -624 21 -825 9 -102 -6 -200 -11 -219
-11 -47 0 -78 40 -86 113 -4 30 -13 90 -21 134 -8 43 -14 117 -14 165 -1 210
-18 294 -99 477 -22 50 -44 113 -49 141 -7 39 -25 71 -88 154 -99 131 -285
340 -392 441 -89 83 -277 220 -358 261 -32 16 -86 62 -140 117 -49 49 -93 90
-97 90 -5 0 -22 11 -39 25 -16 14 -47 28 -69 31 -22 4 -42 11 -45 15 -3 5 -16
9 -29 9 -13 0 -26 4 -29 9 -8 12 -79 23 -176 27 -47 2 -114 10 -150 19 -103
27 -561 30 -695 6z m-792 -3853 c15 -16 27 -26 27 -21 1 4 8 -12 16 -37 39
-121 49 -146 67 -165 15 -15 18 -16 14 -4 -3 9 3 22 14 30 10 7 19 18 19 23 0
6 10 36 23 69 20 53 24 57 47 52 14 -3 33 -17 44 -31 15 -21 24 -24 50 -18 17
3 35 13 39 20 23 39 71 -11 81 -83 4 -27 10 -63 13 -81 l5 -33 37 40 c38 42
75 61 116 61 13 0 33 10 44 22 47 50 113 73 147 50 18 -11 44 -81 44 -116 0
-43 15 -57 49 -45 14 6 29 16 33 22 5 8 44 12 112 13 114 1 113 2 122 -60 4
-37 10 -42 29 -26 15 12 20 5 16 -22 0 -4 5 -5 13 -2 7 3 18 -2 25 -10 7 -8
18 -13 25 -10 7 3 26 -9 44 -25 40 -39 76 -48 97 -27 9 9 25 16 34 16 10 0 29
8 42 19 46 35 121 31 134 -8 3 -9 22 -27 43 -40 20 -13 31 -18 25 -9 -11 12
-8 15 17 15 16 0 26 -5 23 -10 -3 -5 -2 -8 3 -6 35 16 127 64 164 87 97 61
223 91 237 57 16 -44 -31 -140 -150 -301 -77 -105 -282 -390 -330 -460 -50
-71 -47 -96 6 -60 30 21 50 26 90 25 29 -1 74 4 100 11 42 11 53 10 87 -5 l40
-18 -4 -71 c-2 -48 -14 -101 -36 -161 -49 -138 -53 -130 64 -132 113 -1 129
-11 125 -73 -3 -37 7 -64 20 -56 4 3 21 -3 38 -14 81 -49 87 -70 51 -157 -29
-70 -19 -81 57 -64 30 7 65 9 77 5 38 -12 98 -81 94 -106 -4 -27 10 -48 33
-48 9 0 35 -19 57 -42 23 -24 47 -44 55 -46 24 -5 51 -45 46 -69 -8 -42 23
-56 102 -48 82 8 87 7 84 -20 -1 -11 6 -39 14 -63 15 -39 14 -44 -1 -60 -9
-10 -16 -24 -16 -30 0 -6 -7 -15 -16 -20 -13 -7 -2 -11 40 -16 31 -4 56 -11
56 -15 0 -5 17 -11 38 -14 20 -4 59 -11 86 -17 38 -8 52 -7 57 2 5 8 7 3 6
-12 -1 -14 -6 -30 -12 -36 -27 -31 -44 -54 -39 -54 4 0 1 -7 -6 -15 -13 -16
-12 -17 40 -20 94 -5 140 -17 138 -33 -2 -13 3 -16 22 -14 22 4 23 2 10 -14
-13 -16 -13 -17 3 -11 9 3 17 2 17 -3 0 -5 11 -12 25 -16 14 -3 25 -9 25 -13
0 -11 60 -30 77 -24 9 3 25 -5 39 -21 27 -29 9 -29 214 -1 149 21 313 33 325
24 6 -4 23 -9 40 -11 23 -2 31 -9 36 -33 4 -16 10 -39 14 -49 7 -16 5 -18 -9
-13 -11 4 -16 2 -14 -6 4 -22 -13 -57 -28 -57 -8 0 -14 -4 -14 -9 0 -4 -19
-21 -42 -36 -24 -16 -49 -36 -56 -46 -7 -11 -34 -31 -60 -46 -26 -15 -60 -40
-77 -55 -16 -15 -33 -28 -37 -28 -5 0 -8 -9 -8 -19 0 -11 -15 -30 -32 -42 -18
-12 -35 -24 -37 -26 -2 -2 2 -15 10 -29 13 -24 12 -28 -13 -49 -15 -13 -31
-24 -36 -26 -5 -2 -12 -14 -16 -26 -5 -16 0 -26 26 -44 54 -38 60 -46 38 -52
-11 -3 -24 -16 -29 -30 -6 -14 -24 -33 -40 -43 -17 -10 -31 -22 -31 -27 0 -14
57 -67 72 -67 21 0 58 -43 50 -56 -4 -7 -29 -22 -55 -34 -27 -13 -51 -30 -54
-39 -4 -9 -11 -22 -17 -30 -20 -25 -12 -55 17 -68 26 -11 38 -43 17 -43 -16 0
-11 -18 11 -39 21 -20 19 -61 -3 -61 -6 0 -4 -8 6 -19 25 -27 10 -48 -45 -61
-46 -11 -49 -14 -49 -43 0 -18 7 -45 15 -61 19 -35 19 -37 0 -30 -8 4 -15 2
-15 -3 0 -11 -64 -43 -85 -43 -27 0 -26 -21 4 -59 l31 -39 -25 -16 c-13 -9
-40 -16 -60 -16 -19 0 -52 -8 -74 -17 -37 -16 -39 -19 -34 -51 4 -25 2 -33 -8
-32 -35 5 -42 -1 -15 -15 58 -30 166 -117 166 -133 0 -10 -16 -28 -35 -41 -27
-18 -47 -23 -90 -22 -30 0 -58 2 -62 3 -19 5 -129 -15 -135 -25 -3 -6 -25 -10
-47 -9 -23 1 -41 -2 -41 -8 0 -5 32 -35 70 -66 100 -80 109 -104 43 -104 -28
0 -33 -4 -32 -22 0 -13 -2 -32 -4 -43 -2 -11 0 -26 5 -32 7 -9 5 -15 -7 -19
-10 -4 -20 -1 -25 6 -8 14 -40 7 -40 -9 0 -5 12 -16 26 -26 14 -9 23 -23 20
-30 -3 -8 0 -16 7 -19 7 -3 -10 -3 -38 -1 -27 3 -75 8 -105 11 -34 3 -60 12
-68 22 -11 15 -13 10 -11 -33 2 -39 8 -56 30 -80 15 -16 37 -50 49 -75 26 -57
41 -81 60 -97 13 -11 13 -12 -2 -13 -9 0 -20 5 -23 10 -10 16 -25 12 -19 -5 5
-12 2 -13 -12 -8 -18 7 -18 6 -1 -20 28 -44 23 -56 -23 -50 -35 5 -40 3 -40
-14 0 -11 5 -34 11 -52 6 -17 8 -39 4 -49 -4 -9 -7 -32 -6 -50 l3 -32 -44 6
c-24 3 -48 7 -55 9 -15 5 -29 -15 -16 -24 10 -7 30 -98 32 -146 1 -23 -1 -27
-9 -15 -8 12 -10 8 -8 -15 3 -31 15 -38 248 -148 85 -41 162 -97 132 -97 -7 0
-12 5 -12 10 0 6 -10 10 -23 10 -13 0 -28 5 -34 11 -7 7 -20 8 -30 4 -17 -7
-17 -8 2 -15 35 -15 -3 -11 -49 5 -40 14 -88 21 -154 24 -13 1 -21 5 -18 9 3
5 -26 8 -64 6 -39 -1 -70 2 -70 7 0 5 -6 6 -14 3 -8 -3 -17 -1 -20 4 -3 5 -24
5 -53 0 -26 -6 -62 -11 -80 -11 -17 -1 -31 -4 -31 -7 1 -18 -4 -21 -17 -10
-24 20 -65 4 -65 -26 0 -14 4 -23 9 -20 4 3 29 -15 54 -39 l46 -44 -36 5 c-20
2 -42 9 -48 14 -7 6 -26 10 -42 8 -16 -1 -34 1 -40 5 -6 4 -22 3 -36 -2 -18
-7 -30 -6 -45 5 -39 27 -35 -6 4 -42 60 -53 75 -68 86 -88 8 -16 7 -18 -6 -13
-17 7 -23 -8 -7 -17 5 -3 7 -16 4 -28 -4 -13 0 -26 12 -34 10 -8 15 -20 11
-29 -5 -15 -10 -13 -37 9 -33 28 -50 32 -80 16 -14 -8 -25 -6 -46 7 -42 27
-93 43 -93 29 0 -22 22 -37 37 -25 9 8 13 8 13 0 0 -6 -4 -11 -10 -11 -16 0
-12 -47 5 -54 8 -3 15 -12 15 -21 0 -17 -16 -20 -25 -5 -5 8 -11 7 -20 0 -8
-7 -19 -9 -25 -5 -6 4 -27 7 -46 7 -34 0 -55 13 -72 44 -6 10 -18 14 -33 11
l-24 -4 22 -8 c18 -6 22 -12 17 -32 -4 -16 -2 -28 6 -33 24 -15 -1 -29 -50
-28 -29 0 -56 6 -64 14 -8 7 -20 15 -27 16 -7 2 -21 12 -31 23 -21 24 -23 14
-4 -24 9 -17 11 -32 6 -42 -7 -10 -4 -15 11 -19 20 -5 20 -5 1 -26 -14 -14
-17 -26 -11 -35 13 -21 11 -24 -21 -25 -43 -2 -60 -20 -58 -64 0 -20 -2 -41
-5 -47 -6 -10 7 -60 24 -95 14 -28 10 -43 -6 -22 -14 19 -14 19 -15 -2 0 -51
-64 -44 -75 8 -4 15 -11 31 -17 34 -8 5 -9 -1 -4 -17 22 -69 17 -96 -12 -67
-8 8 -15 8 -25 0 -10 -9 -18 -7 -35 8 -12 12 -23 16 -27 10 -3 -6 -1 -10 4
-10 6 0 11 -9 11 -21 0 -14 -5 -19 -17 -17 -11 2 -17 12 -16 25 2 14 -9 30
-32 48 -19 14 -35 31 -35 38 0 7 -16 30 -35 51 -19 22 -38 48 -41 59 -7 24 -9
26 -69 92 -24 28 -47 59 -51 69 -3 11 -20 34 -38 53 -34 38 -145 212 -146 229
0 6 -9 21 -20 34 -11 13 -20 27 -20 32 0 5 -16 25 -35 45 -20 20 -34 42 -31
49 3 7 -8 29 -24 51 -16 21 -30 51 -30 66 0 16 -4 26 -9 23 -5 -4 -23 13 -40
36 -17 24 -34 48 -39 54 -18 21 -60 102 -56 108 2 3 1 4 -2 1 -8 -5 -35 28
-60 75 -43 78 -109 187 -131 213 -13 16 -23 32 -23 37 0 4 -18 38 -40 74 -22
37 -52 92 -66 124 -15 31 -37 80 -50 108 -13 28 -24 56 -24 62 0 7 -3 12 -8
12 -14 0 -45 85 -48 133 -3 38 -9 53 -29 69 -19 15 -25 29 -25 59 0 27 4 38
11 33 6 -3 3 5 -6 20 -10 14 -21 26 -26 26 -5 0 -9 5 -9 11 0 6 8 8 18 5 13
-4 18 -1 18 14 0 11 -3 20 -7 20 -4 0 -9 7 -13 15 -3 9 0 15 10 15 8 0 12 -4
9 -10 -4 -6 2 -7 17 -1 13 4 24 18 26 30 2 12 8 19 13 16 5 -4 9 1 9 9 0 9 -8
16 -17 17 -11 0 -5 6 14 15 40 17 63 60 63 118 0 52 8 60 46 45 23 -8 31 -7
40 5 6 9 25 19 42 22 28 6 32 3 51 -35 12 -22 21 -47 21 -55 0 -9 10 -22 23
-31 19 -12 28 -13 50 -2 15 6 27 19 27 28 0 21 29 33 46 19 7 -6 27 -9 46 -5
32 5 34 4 72 -60 45 -76 62 -89 97 -72 40 20 36 61 -16 164 -25 50 -52 93 -59
96 -8 3 -18 23 -22 44 -4 21 -10 45 -15 54 -5 9 -4 20 3 27 8 8 20 1 44 -25
26 -27 39 -34 56 -29 13 3 32 6 44 6 19 0 34 19 48 63 6 18 8 18 41 -3 37 -23
66 -17 79 16 10 25 7 81 -6 109 -8 18 -8 29 -1 36 7 7 18 -3 36 -34 14 -24 33
-49 41 -56 21 -18 143 -23 156 -8 6 7 21 25 35 40 29 33 30 38 9 83 -21 44
-66 71 -133 80 -47 6 -55 10 -66 38 -16 37 -59 86 -76 86 -6 0 0 9 14 20 25
20 28 20 94 5 114 -27 158 -43 155 -55 -5 -23 27 -58 65 -70 21 -7 46 -21 56
-31 35 -37 117 -12 117 36 0 11 5 26 11 32 12 12 -9 70 -32 90 -24 19 -66 19
-88 -1 -32 -29 -129 -25 -216 8 -61 23 -86 32 -104 35 -3 1 6 12 18 25 26 27
29 48 17 119 -7 48 -7 49 16 42 13 -4 40 -16 62 -27 37 -19 38 -22 33 -58 -6
-46 4 -61 58 -89 59 -31 97 -27 140 13 36 34 36 36 24 73 -11 33 -29 55 -76
93 -20 16 -103 12 -109 -5 -4 -8 -12 -15 -19 -15 -18 0 -168 72 -177 84 -12
18 2 25 32 14 17 -5 47 -7 68 -3 58 11 122 8 185 -7 48 -11 61 -19 78 -48 25
-43 78 -89 101 -90 10 0 25 -8 35 -18 37 -38 89 -71 131 -82 36 -9 47 -8 71 6
31 18 41 39 41 86 0 31 -19 78 -32 78 -5 0 -13 11 -18 25 -5 14 -18 25 -28 25
-30 0 -58 27 -70 69 -17 53 -58 101 -88 101 -13 0 -28 9 -34 20 -11 20 -96 66
-135 72 -15 2 -21 14 -27 50 -3 26 -16 61 -27 77 -12 16 -21 36 -21 44 0 10
38 30 108 57 140 55 167 59 193 31 27 -29 116 -30 145 -1 35 36 49 54 50 70 1
8 5 41 9 73 6 47 5 57 -7 57 -21 0 -39 45 -29 72 12 32 0 58 -48 101 -45 41
-67 44 -129 23 -39 -14 -242 -33 -242 -23 0 19 16 40 41 52 37 20 46 19 52 -5
11 -43 139 -8 168 46 15 30 13 73 -5 91 -14 16 -106 34 -106 22 0 -5 -9 -9
-20 -9 -26 0 -70 -49 -70 -78 0 -32 -46 -49 -80 -29 -32 20 -36 33 -10 40 11
3 20 12 20 21 0 9 6 16 13 16 7 0 31 18 52 41 54 55 82 66 109 40 16 -15 31
-19 61 -16 22 2 42 5 45 6 3 1 13 0 23 0 10 -2 24 10 35 28 9 17 23 31 31 31
10 0 12 9 6 38 -3 20 -10 41 -15 46 -5 5 -40 11 -77 13 -66 4 -69 3 -105 -29
-21 -18 -38 -41 -38 -50 0 -9 -6 -21 -14 -25 -8 -4 -34 -25 -58 -45 -95 -82
-116 -97 -193 -140 -152 -86 -204 -109 -230 -102 -21 5 -24 11 -19 28 16 50
36 74 106 121 40 27 91 64 113 81 22 18 63 43 92 58 28 14 54 30 58 36 4 6 11
8 16 4 25 -15 65 8 86 49 51 101 55 137 19 160 l-23 16 48 50 c58 60 70 95 43
121 -29 28 -74 28 -113 1 -38 -27 -60 -17 -41 18 17 34 9 74 -20 88 -29 15
-114 8 -142 -12 -24 -16 -68 -83 -65 -97 3 -14 -49 -45 -59 -35 -4 4 -3 17 3
29 15 33 6 46 -38 58 -45 13 -48 26 -14 66 42 48 29 122 -24 144 -17 7 -31 19
-31 26 0 18 44 36 67 27 10 -4 14 -2 9 5 -3 6 3 27 14 47 34 61 25 114 -25
141 -33 18 -34 18 -74 -10 -23 -16 -41 -34 -41 -41 0 -6 -18 -17 -41 -24 -45
-14 -116 -80 -125 -118 -4 -14 0 -37 7 -51 7 -15 15 -31 17 -36 3 -5 -7 -6
-21 -3 -13 4 -39 2 -56 -4 -24 -9 -40 -7 -78 7 -63 23 -66 26 -52 57 10 21 19
27 45 27 54 0 79 58 54 124 -6 16 -6 26 0 26 15 0 60 85 65 121 5 41 -8 65
-44 84 -26 13 -32 12 -70 -6 -23 -11 -47 -28 -53 -39 -7 -11 -18 -20 -25 -20
-7 0 -13 -3 -13 -7 0 -5 -4 -14 -9 -21 -6 -10 -15 -9 -44 8 -19 11 -38 27 -41
35 -8 22 -41 18 -73 -9 -25 -22 -28 -30 -28 -90 0 -52 5 -69 21 -88 41 -45 43
-57 18 -111 -22 -49 -71 -100 -86 -90 -5 2 -8 17 -8 33 0 43 -20 80 -48 87
-21 5 -23 9 -17 42 4 20 12 72 19 116 10 72 14 80 34 83 13 2 32 11 41 20 10
9 26 22 35 27 13 8 19 28 23 77 7 78 -1 92 -58 110 -34 10 -42 9 -60 -8 -23
-21 -19 -23 -64 40 -9 11 -31 20 -60 24 -43 4 -49 2 -78 -29 -25 -27 -31 -43
-32 -79 0 -41 -2 -45 -30 -50 -80 -17 -160 -115 -133 -164 7 -12 1 -31 -22
-71 -17 -30 -35 -55 -38 -55 -4 0 -17 8 -30 18 -21 16 -22 21 -11 45 10 22 9
30 -5 52 -19 28 -30 30 -65 11 -14 -8 -31 -12 -38 -9 -7 3 -23 -6 -34 -21 -11
-14 -25 -26 -30 -26 -19 0 -9 72 15 103 35 48 39 93 13 146 -12 25 -34 53 -48
64 -22 16 -32 17 -67 8 -22 -7 -50 -23 -61 -37 l-20 -26 -15 37 c-20 47 -71
70 -135 60 -40 -6 -44 -5 -32 9 8 9 10 16 5 16 -4 0 -3 5 3 11 9 9 7 17 -7 31
-10 11 -17 31 -15 45 1 14 -4 51 -12 82 -8 31 -16 72 -17 91 -1 19 -5 41 -10
48 -12 20 -14 62 -3 69 6 4 0 15 -15 27 -29 23 -38 69 -21 102 7 11 8 26 4 33
-11 18 -1 62 16 68 12 5 12 7 2 14 -7 4 -21 3 -32 -2 -17 -9 -17 -8 -7 10 6
12 19 21 30 21 14 0 18 5 13 17 -5 13 -2 15 11 10 10 -4 15 -3 11 3 -3 6 -1
10 4 10 6 0 11 -7 11 -15 0 -8 5 -15 10 -15 6 0 10 4 10 10 0 5 6 7 14 4 14
-5 32 29 28 52 -4 19 51 74 73 74 15 0 17 -3 7 -9 -10 -6 -7 -10 13 -15 30 -8
65 0 65 15 0 6 4 8 9 4 5 -3 12 4 16 15 4 14 13 18 28 16 12 -3 30 -5 39 -5 9
-1 29 -19 45 -41 15 -22 36 -40 45 -40 9 0 20 -4 23 -10 3 -5 11 -10 16 -10 6
0 7 6 3 13 -6 9 -4 9 8 -1 14 -11 17 -8 23 30 4 24 11 48 16 54 5 6 10 26 11
45 5 70 49 82 101 27z m-2259 -164 c3 -8 2 -12 -4 -9 -6 3 -10 10 -10 16 0 14
7 11 14 -7z m1890 -958 c-7 -19 42 -66 69 -66 14 0 28 -7 31 -16 11 -28 6 -89
-9 -108 -19 -25 -19 -60 0 -76 10 -8 15 -31 15 -71 0 -54 -10 -74 -25 -50 -3
6 -18 6 -37 1 -17 -5 -34 -7 -38 -5 -4 2 -13 33 -19 67 -7 35 -20 95 -31 133
-21 81 -19 158 5 205 16 31 18 32 31 16 7 -10 11 -23 8 -30z m772 -103 c-11
-11 -19 6 -11 24 8 17 8 17 12 0 3 -10 2 -21 -1 -24z m-212 -40 c3 -10 9 -24
12 -30 9 -19 -41 -16 -57 3 -11 14 -10 18 6 30 25 18 31 18 39 -3z m-858 -73
c4 -16 5 -33 4 -36 -1 -4 5 -11 14 -16 20 -11 12 -28 -14 -28 -29 0 -64 83
-43 103 15 16 34 5 39 -23z m118 -32 c34 -32 42 -34 50 -12 5 13 9 14 21 4 11
-9 15 -32 15 -79 0 -73 -11 -70 -33 9 l-12 45 -5 -45 c-3 -25 -2 -49 2 -54 4
-6 8 -33 8 -62 0 -38 -4 -53 -16 -58 -29 -11 -34 -6 -34 39 0 26 -11 68 -25
101 -14 31 -28 82 -32 113 -7 63 -7 63 61 -1z m613 -9 c-24 -43 -22 -75 8 -95
32 -21 32 -34 0 -34 -28 0 -75 -20 -75 -32 0 -4 -9 -8 -20 -8 -11 0 -20 3 -20
8 0 4 17 48 38 97 22 50 42 99 46 109 6 18 8 19 24 2 16 -16 16 -18 -1 -47z
m301 -11 l-13 -23 -3 27 c-2 15 3 37 10 50 l13 23 3 -27 c2 -15 -3 -37 -10
-50z m-58 18 c0 -34 -26 -93 -45 -100 -22 -8 -54 -83 -55 -126 -1 -19 -14 -62
-30 -95 -26 -55 -28 -57 -29 -29 -1 31 42 193 78 294 12 35 28 60 43 67 33 18
38 16 38 -11z m-3820 -15 c0 -6 -4 -13 -10 -16 -5 -3 -10 1 -10 9 0 9 5 16 10
16 6 0 10 -4 10 -9z m4170 0 c0 -5 11 -23 25 -39 l25 -30 -52 -101 c-29 -56
-56 -101 -60 -101 -11 0 -10 64 1 76 6 5 4 21 -6 42 -15 31 -14 34 16 97 27
57 51 83 51 56z m-1387 -72 c15 -17 27 -42 27 -54 0 -13 5 -27 10 -30 16 -10
12 -55 -5 -55 -18 0 -55 39 -55 59 -1 9 -7 27 -14 40 -12 22 -11 71 3 71 4 0
19 -14 34 -31z m556 -60 c-22 -14 -29 -11 -29 11 0 18 3 19 21 9 17 -9 19 -13
8 -20z m-1260 -111 c0 -9 -2 -10 -5 -1 -3 7 -12 9 -20 6 -8 -3 -14 -1 -14 3 0
5 -3 20 -6 34 l-6 25 26 -27 c14 -15 26 -33 25 -40z m1891 32 c0 -5 -9 -10
-21 -10 -11 0 -17 5 -14 10 3 6 13 10 21 10 8 0 14 -4 14 -10z m267 -7 c3 -10
13 -26 21 -35 27 -32 7 -67 -54 -95 -30 -14 -58 -22 -62 -19 -7 8 69 166 80
166 5 0 11 -8 15 -17z m308 -4 c8 -23 1 -34 -14 -24 -13 8 -15 45 -2 45 5 0
13 -9 16 -21z m-5021 -35 c12 -5 13 -9 3 -19 -9 -9 -14 -10 -19 -1 -16 23 -10
30 16 20z m-1289 -34 c-3 -5 -11 -10 -16 -10 -6 0 -7 5 -4 10 3 6 11 10 16 10
6 0 7 -4 4 -10z m6355 -5 c10 -12 10 -23 -4 -58 -9 -23 -16 -53 -16 -65 0 -12
-13 -36 -30 -54 -16 -17 -30 -36 -30 -42 0 -8 2 -8 8 0 4 6 21 18 38 27 30 15
33 15 49 -3 10 -11 24 -20 32 -20 31 0 8 -32 -58 -82 -135 -100 -148 -108
-180 -115 -30 -6 -31 -5 -20 15 6 12 22 24 34 27 13 4 28 18 33 33 6 15 12 32
14 37 2 6 12 19 22 29 26 28 24 50 -2 34 -11 -7 -20 -16 -20 -20 0 -17 -26 -6
-43 18 -25 34 -15 57 42 88 48 25 67 49 56 67 -6 8 18 62 37 87 14 16 23 15
38 -3z m-6365 -34 c3 -5 1 -12 -5 -16 -5 -3 -10 1 -10 9 0 18 6 21 15 7z m40
-9 c-3 -3 -11 0 -18 7 -9 10 -8 11 6 5 10 -3 15 -9 12 -12z m1112 12 c-3 -3
-12 -4 -19 -1 -8 3 -5 6 6 6 11 1 17 -2 13 -5z m4143 -4 c0 -5 -4 -10 -10 -10
-5 0 -10 5 -10 10 0 6 5 10 10 10 6 0 10 -4 10 -10z m-4973 -82 c-3 -8 -6 -5
-6 6 -1 11 2 17 5 13 3 -3 4 -12 1 -19z m5443 -38 c-8 -5 -22 -10 -30 -10 -13
0 -13 1 0 10 8 5 22 10 30 10 13 0 13 -1 0 -10z m-5200 -10 c0 -5 -4 -10 -10
-10 -5 0 -10 5 -10 10 0 6 5 10 10 10 6 0 10 -4 10 -10z m209 -46 c-6 -8 -23
-14 -38 -14 -24 1 -25 1 -8 15 11 7 26 11 35 8 11 -5 13 -3 7 7 -5 9 -4 11 4
6 9 -6 9 -11 0 -22z m2421 -44 c0 -5 -2 -10 -4 -10 -3 0 -8 5 -11 10 -3 6 -1
10 4 10 6 0 11 -4 11 -10z m-165 -50 c-3 -5 -11 -10 -16 -10 -6 0 -7 5 -4 10
3 6 11 10 16 10 6 0 7 -4 4 -10z m3415 -29 c-11 -21 -37 -34 -44 -22 -3 4 4
18 15 30 23 25 44 19 29 -8z m-340 -34 c0 -16 -61 -87 -75 -87 -7 0 -15 15
-17 36 -4 30 0 39 26 59 24 19 33 21 48 12 10 -7 18 -16 18 -20z m551 16 c-11
-19 -85 -97 -117 -123 -51 -42 -68 -43 -106 -11 -24 20 -23 28 7 66 20 27 33
34 79 39 31 4 66 16 78 26 13 11 33 19 46 20 19 0 21 -3 13 -17z m69 -54 c3
-23 12 -37 28 -44 12 -5 22 -15 22 -22 0 -10 -116 -73 -135 -73 -11 0 -34 33
-35 48 0 18 93 131 105 128 6 -1 12 -18 15 -37z m-3666 9 c-6 -9 -3 -9 9 0 21
17 43 6 27 -13 -9 -11 -6 -12 12 -8 13 3 21 3 18 0 -3 -3 -19 -8 -36 -11 -26
-5 -33 -2 -42 19 -10 21 -9 25 4 25 9 0 12 -5 8 -12z m-3348 -85 c-10 -10 -19
5 -10 18 6 11 8 11 12 0 2 -7 1 -15 -2 -18z m3454 -69 c0 -2 -7 -4 -15 -4 -8
0 -15 4 -15 10 0 5 7 7 15 4 8 -4 15 -8 15 -10z m3220 -72 c0 -15 -24 -32 -44
-32 -20 1 -20 1 3 20 24 21 41 26 41 12z m-3015 -102 c2 -4 -7 -5 -20 -2 -14
2 -25 8 -25 12 0 10 38 1 45 -10z m-2595 -105 c0 -8 -4 -15 -10 -15 -5 0 -10
7 -10 15 0 8 5 15 10 15 6 0 10 -7 10 -15z m2585 -5 c-3 -5 -11 -10 -16 -10
-6 0 -7 5 -4 10 3 6 11 10 16 10 6 0 7 -4 4 -10z m3599 -35 c-5 -27 -2 -41 12
-56 25 -28 12 -36 -102 -63 -190 -45 -224 -45 -249 5 -14 26 -14 29 1 29 10 0
14 -6 11 -14 -7 -19 43 -37 77 -28 34 9 89 63 110 105 16 36 18 36 139 56 4 0
5 -15 1 -34z m-367 0 c-31 -27 -67 -33 -67 -11 0 15 41 34 75 35 18 0 17 -2
-8 -24z m430 -122 c4 -10 13 -23 22 -29 22 -17 6 -44 -26 -44 -15 0 -63 -7
-107 -15 -62 -12 -86 -13 -117 -4 -32 10 -42 9 -63 -5 -32 -20 -36 -20 -36 2
0 15 28 27 153 65 83 25 156 46 160 46 4 1 11 -7 14 -16z m-3587 -27 c0 -2 -7
-6 -15 -10 -8 -3 -15 -1 -15 4 0 6 7 10 15 10 8 0 15 -2 15 -4z m3610 -89 c0
-7 -24 -20 -52 -30 -124 -39 -149 -47 -154 -47 -3 0 -4 12 -2 27 3 25 9 29 73
44 89 21 135 23 135 6z m-435 -128 c4 -11 4 -23 1 -26 -8 -9 -216 -30 -216
-22 0 4 19 14 43 23 143 54 162 56 172 25z m-5515 -9 c0 -5 -2 -10 -4 -10 -3
0 -8 5 -11 10 -3 6 -1 10 4 10 6 0 11 -4 11 -10z m5669 -266 c39 -8 40 -29 2
-48 -16 -9 -32 -23 -35 -32 -10 -25 -24 -6 -32 44 -7 46 -2 49 65 36z m-2979
-564 c0 -5 -2 -10 -4 -10 -3 0 -8 5 -11 10 -3 6 -1 10 4 10 6 0 11 -4 11 -10z
m2420 -103 c15 -17 18 -26 9 -22 -8 3 -23 20 -33 38 -11 18 -15 28 -10 22 5
-5 20 -23 34 -38z m-2330 -17 c0 -5 -4 -10 -10 -10 -5 0 -10 5 -10 10 0 6 5
10 10 10 6 0 10 -4 10 -10z m199 -239 c11 -7 10 -11 -6 -19 -15 -9 -19 -7 -20
9 -2 21 5 23 26 10z m-71 -52 c-2 -6 -8 -10 -13 -10 -5 0 -11 4 -13 10 -2 6 4
11 13 11 9 0 15 -5 13 -11z m-8 -199 c0 -5 -7 -7 -15 -4 -8 4 -15 8 -15 10 0
2 7 4 15 4 8 0 15 -4 15 -10z m490 -10 c0 -5 -4 -10 -10 -10 -5 0 -10 5 -10
10 0 6 5 10 10 10 6 0 10 -4 10 -10z m170 -17 c0 -5 -14 -16 -30 -25 -25 -14
-30 -15 -30 -3 0 8 9 15 19 15 11 0 23 5 26 10 7 12 15 13 15 3z m950 -119 c0
-8 -4 -12 -10 -9 -5 3 -10 10 -10 16 0 5 5 9 10 9 6 0 10 -7 10 -16z m3010
-159 c0 -8 -9 -15 -20 -15 -11 0 -20 7 -20 15 0 8 9 15 20 15 11 0 20 -7 20
-15z m-2787 -933 c-21 -5 -43 6 -42 20 0 10 2 10 6 1 2 -7 9 -13 14 -13 6 0 7
5 4 10 -4 6 -4 19 0 28 5 14 9 11 19 -13 11 -25 10 -31 -1 -33z m2647 48 c0
-5 -5 -10 -11 -10 -5 0 -7 5 -4 10 3 6 8 10 11 10 2 0 4 -4 4 -10z m-2350
-479 c0 -5 -6 -14 -14 -21 -12 -9 -15 -8 -13 9 1 20 27 31 27 12z m-190 -79
c0 -5 -7 -17 -16 -28 -8 -10 -14 -14 -11 -9 2 6 7 18 10 28 7 17 17 23 17 9z
m250 -237 c0 -8 -6 -15 -14 -15 -17 0 -28 14 -19 24 12 12 33 6 33 -9z m-110
-85 c0 -5 -2 -10 -4 -10 -3 0 -8 5 -11 10 -3 6 -1 10 4 10 6 0 11 -4 11 -10z
m6694 -23 c-3 -9 -10 -17 -15 -17 -11 0 -12 34 -2 44 11 11 24 -9 17 -27z
m-5417 -13 c-9 -9 -28 6 -21 18 4 6 10 6 17 -1 6 -6 8 -13 4 -17z m-1187 -14
c0 -5 -4 -10 -10 -10 -5 0 -10 5 -10 10 0 6 5 10 10 10 6 0 10 -4 10 -10z m90
-68 c0 -8 -1 -13 -3 -11 -1 2 -9 12 -16 22 -12 15 -12 17 3 11 9 -3 16 -13 16
-22z m304 3 c3 -8 1 -15 -4 -15 -6 0 -10 7 -10 15 0 8 2 15 4 15 2 0 6 -7 10
-15z m-199 -15 c3 -5 1 -10 -4 -10 -6 0 -11 5 -11 10 0 6 2 10 4 10 3 0 8 -4
11 -10z m-88 -22 c-3 -8 -6 -5 -6 6 -1 11 2 17 5 13 3 -3 4 -12 1 -19z m-23
-37 c-7 -7 -34 21 -28 31 3 5 12 1 19 -9 7 -10 12 -20 9 -22z m106 -55 c0 -5
-9 -1 -19 8 -11 10 -17 25 -14 33 5 12 9 10 19 -8 7 -13 13 -28 14 -33z m130
-5 c0 -5 9 -12 19 -16 20 -6 36 -34 25 -44 -3 -3 -10 2 -15 11 -6 10 -16 14
-31 10 -18 -4 -20 -2 -14 13 4 11 2 22 -6 27 -10 6 -8 8 5 8 9 0 17 -4 17 -9z
m166 -26 c9 -14 23 -25 30 -25 8 0 14 -5 14 -10 0 -7 -6 -7 -20 0 -11 6 -20 7
-20 2 0 -5 9 -17 20 -27 24 -22 26 -35 5 -35 -8 0 -15 5 -15 11 0 7 -12 23
-27 37 -29 27 -40 72 -18 72 8 0 22 -11 31 -25z m-240 -36 c19 -21 19 -21 -11
-17 -19 2 -31 10 -33 21 -5 24 21 22 44 -4z m346 -111 c27 -31 35 -48 21 -48
-15 0 -73 52 -73 66 0 23 21 16 52 -18z m138 22 c0 -5 -5 -10 -11 -10 -5 0 -7
5 -4 10 3 6 8 10 11 10 2 0 4 -4 4 -10z m40 -4 c0 -15 -18 -31 -26 -23 -7 7 7
37 17 37 5 0 9 -6 9 -14z m10 -56 c0 -5 -7 -7 -15 -4 -8 4 -15 8 -15 10 0 2 7
4 15 4 8 0 15 -4 15 -10z m33 -99 c-9 -12 -23 18 -16 35 6 17 8 17 13 -6 4
-14 5 -27 3 -29z m-123 -1 c0 -5 -4 -10 -10 -10 -5 0 -10 5 -10 10 0 6 5 10
10 10 6 0 10 -4 10 -10z m-10 -25 c20 6 22 4 18 -19 -3 -14 -2 -26 2 -26 4 0
10 -9 13 -20 3 -12 0 -20 -7 -20 -19 0 -53 42 -60 75 -4 19 -3 25 2 16 6 -8
17 -11 32 -6z m199 -544 c-15 -5 -22 6 -14 19 6 9 10 9 16 -1 5 -8 4 -15 -2
-18z m2788 -867 c-3 -3 -12 -4 -19 -1 -8 3 -5 6 6 6 11 1 17 -2 13 -5z"/>
<path d="M8176 6231 c-3 -4 3 -19 14 -31 l19 -22 -2 31 c-2 29 -19 42 -31 22z"/>
<path d="M9377 4136 c-4 -10 -5 -21 -2 -24 9 -9 17 6 13 25 -3 17 -4 17 -11
-1z"/>
<path d="M9484 4073 c2 -13 0 -23 -6 -23 -5 0 -6 -5 -2 -11 13 -22 28 9 15 33
l-12 23 5 -22z"/>
<path d="M6562 11010 c0 -14 2 -19 5 -12 2 6 2 18 0 25 -3 6 -5 1 -5 -13z"/>
<path d="M6572 10945 c0 -16 2 -22 5 -12 2 9 2 23 0 30 -3 6 -5 -1 -5 -18z"/>
<path d="M6592 10865 c0 -16 5 -48 13 -70 17 -53 17 -35 1 40 -9 38 -14 49
-14 30z"/>
<path d="M6621 10734 c0 -11 3 -14 6 -6 3 7 2 16 -1 19 -3 4 -6 -2 -5 -13z"/>
<path d="M6801 10040 c0 -8 4 -24 9 -35 5 -13 9 -14 9 -5 0 8 -4 24 -9 35 -5
13 -9 14 -9 5z"/>
<path d="M6821 9973 c0 -4 4 -17 9 -28 8 -19 9 -19 9 2 1 12 -3 25 -9 28 -5 3
-10 3 -9 -2z"/>
<path d="M6841 9904 c0 -11 3 -14 6 -6 3 7 2 16 -1 19 -3 4 -6 -2 -5 -13z"/>
<path d="M6851 9864 c0 -11 3 -14 6 -6 3 7 2 16 -1 19 -3 4 -6 -2 -5 -13z"/>
<path d="M6390 9625 c0 -5 5 -17 10 -25 5 -8 10 -10 10 -5 0 6 -5 17 -10 25
-5 8 -10 11 -10 5z"/>
<path d="M5786 9562 c-3 -5 1 -9 9 -9 8 0 12 4 9 9 -3 4 -7 8 -9 8 -2 0 -6 -4
-9 -8z"/>
<path d="M6050 9489 c0 -5 5 -7 10 -4 6 3 10 8 10 11 0 2 -4 4 -10 4 -5 0 -10
-5 -10 -11z"/>
<path d="M6645 9430 c-3 -5 -1 -10 4 -10 6 0 11 5 11 10 0 6 -2 10 -4 10 -3 0
-8 -4 -11 -10z"/>
<path d="M6410 9381 c0 -5 5 -13 10 -16 6 -3 10 -2 10 4 0 5 -4 13 -10 16 -5
3 -10 2 -10 -4z"/>
<path d="M6210 9352 c0 -4 10 -14 21 -22 12 -8 30 -24 40 -34 11 -11 19 -15
19 -10 0 9 -67 74 -76 74 -2 0 -4 -4 -4 -8z"/>
<path d="M6340 9310 c0 -5 4 -10 9 -10 6 0 13 5 16 10 3 6 -1 10 -9 10 -9 0
-16 -4 -16 -10z"/>
<path d="M5375 9090 c3 -5 11 -10 16 -10 6 0 7 5 4 10 -3 6 -11 10 -16 10 -6
0 -7 -4 -4 -10z"/>
<path d="M3907 8776 c-6 -15 1 -26 16 -26 5 0 6 7 3 16 -3 8 -2 12 4 9 6 -3
10 -1 10 4 0 16 -27 13 -33 -3z"/>
<path d="M5445 8760 c3 -5 16 -10 28 -9 21 0 21 1 2 9 -28 12 -37 12 -30 0z"/>
<path d="M3520 8567 c0 -3 27 -14 61 -26 42 -14 57 -16 50 -7 -6 7 -26 16 -44
19 -17 3 -40 8 -49 12 -10 4 -18 5 -18 2z"/>
<path d="M5930 8177 c0 -10 8 -17 18 -17 9 0 13 4 7 8 -5 4 -13 11 -17 16 -5
5 -8 2 -8 -7z"/>
<path d="M4800 8140 c0 -5 5 -10 10 -10 6 0 10 5 10 10 0 6 -4 10 -10 10 -5 0
-10 -4 -10 -10z"/>
<path d="M3620 8095 c12 -15 30 -12 30 6 0 5 -10 9 -21 9 -18 0 -19 -2 -9 -15z"/>
<path d="M4208 8073 c7 -3 16 -2 19 1 4 3 -2 6 -13 5 -11 0 -14 -3 -6 -6z"/>
<path d="M4253 8063 c9 -2 23 -2 30 0 6 3 -1 5 -18 5 -16 0 -22 -2 -12 -5z"/>
<path d="M4726 8001 c-5 -7 7 -11 36 -11 24 0 61 -3 83 -6 33 -4 37 -3 22 6
-27 17 -133 25 -141 11z"/>
<path d="M5755 7990 c3 -5 8 -10 11 -10 2 0 4 5 4 10 0 6 -5 10 -11 10 -5 0
-7 -4 -4 -10z"/>
<path d="M6220 7048 l-25 -21 25 6 c14 4 28 7 33 7 4 0 7 7 7 15 0 20 -10 18
-40 -7z"/>
<path d="M6282 7003 c-19 -8 -4 -23 24 -23 16 0 24 5 22 13 -5 13 -26 18 -46
10z"/>
<path d="M6180 6861 c-14 -4 -20 -10 -15 -13 6 -3 21 0 35 8 27 14 20 16 -20
5z"/>
<path d="M6084 6804 c-18 -14 -18 -15 4 -4 12 6 22 13 22 15 0 8 -5 6 -26 -11z"/>
<path d="M6565 6750 c4 -6 11 -8 16 -5 14 9 11 15 -7 15 -8 0 -12 -5 -9 -10z"/>
<path d="M6961 6421 c-8 -5 -9 -11 -3 -15 5 -3 12 1 16 9 6 17 6 18 -13 6z"/>
<path d="M6305 6380 c-3 -5 -1 -10 4 -10 6 0 11 5 11 10 0 6 -2 10 -4 10 -3 0
-8 -4 -11 -10z"/>
<path d="M7137 6289 c6 -22 23 -26 23 -5 0 8 -6 16 -14 19 -10 4 -12 0 -9 -14z"/>
<path d="M7130 6219 c0 -5 5 -7 10 -4 6 3 10 8 10 11 0 2 -4 4 -10 4 -5 0 -10
-5 -10 -11z"/>
<path d="M7402 6147 c-15 -64 -16 -90 -3 -67 9 16 26 120 19 120 -2 0 -9 -24
-16 -53z"/>
<path d="M7138 6094 c-5 -4 -8 -19 -8 -33 0 -18 3 -22 11 -14 6 6 9 21 7 33
-1 12 -6 18 -10 14z"/>
<path d="M7117 6023 c-4 -3 -7 -11 -7 -17 0 -6 5 -5 12 2 6 6 9 14 7 17 -3 3
-9 2 -12 -2z"/>
<path d="M7212 5955 c-14 -31 -16 -53 -3 -39 9 9 24 64 18 64 -2 0 -9 -11 -15
-25z"/>
<path d="M7351 5949 c-13 -39 -14 -46 -2 -33 9 10 24 64 17 64 -2 0 -9 -14
-15 -31z"/>
<path d="M7075 5930 c-3 -5 -1 -10 4 -10 6 0 11 5 11 10 0 6 -2 10 -4 10 -3 0
-8 -4 -11 -10z"/>
<path d="M8026 5882 c-4 -13 -5 -26 -2 -29 10 -11 18 4 14 29 l-4 23 -8 -23z"/>
<path d="M8176 5638 c3 -4 9 -8 15 -8 5 0 9 4 9 8 0 5 -7 9 -15 9 -8 0 -12 -4
-9 -9z"/>
<path d="M8265 5330 c-4 -6 -2 -17 4 -23 15 -15 25 -2 13 19 -7 12 -11 13 -17
4z"/>
<path d="M8280 5230 c0 -19 3 -21 12 -12 9 9 9 15 0 24 -9 9 -12 7 -12 -12z"/>
<path d="M8414 5079 c-10 -17 10 -29 23 -14 10 10 9 14 -2 19 -8 3 -17 0 -21
-5z"/>
<path d="M8310 5070 c0 -8 5 -22 10 -30 9 -13 10 -13 10 0 0 8 -5 22 -10 30
-9 13 -10 13 -10 0z"/>
<path d="M8440 5035 c-7 -8 -9 -26 -5 -44 5 -22 10 -28 26 -24 26 7 24 32 -3
42 -18 6 -19 9 -5 14 10 4 17 11 17 17 0 15 -16 12 -30 -5z"/>
<path d="M5280 5025 c0 -8 5 -15 10 -15 6 0 10 7 10 15 0 8 -4 15 -10 15 -5 0
-10 -7 -10 -15z"/>
<path d="M8071 5024 c0 -11 3 -14 6 -6 3 7 2 16 -1 19 -3 4 -6 -2 -5 -13z"/>
<path d="M8328 4976 c-3 -14 -2 -28 1 -31 3 -4 12 -25 18 -48 l13 -42 -6 40
c-7 55 -15 99 -19 103 -1 2 -5 -8 -7 -22z"/>
<path d="M8090 4930 c0 -11 4 -20 9 -20 5 0 7 9 4 20 -3 11 -7 20 -9 20 -2 0
-4 -9 -4 -20z"/>
<path d="M8470 4921 c0 -12 5 -21 10 -21 6 0 10 6 10 14 0 8 -4 18 -10 21 -5
3 -10 -3 -10 -14z"/>
<path d="M8568 4893 c7 -3 16 -2 19 1 4 3 -2 6 -13 5 -11 0 -14 -3 -6 -6z"/>
<path d="M8102 4855 c0 -16 2 -22 5 -12 2 9 2 23 0 30 -3 6 -5 -1 -5 -18z"/>
<path d="M8553 4864 c-3 -9 0 -20 8 -25 18 -11 32 -11 24 0 -3 5 -1 12 5 16 6
4 8 11 5 16 -10 15 -35 10 -42 -7z"/>
<path d="M8361 4824 c0 -11 3 -14 6 -6 3 7 2 16 -1 19 -3 4 -6 -2 -5 -13z"/>
<path d="M8530 4821 c0 -7 13 -17 30 -22 29 -11 68 -73 75 -124 2 -11 13 -38
24 -60 l20 -40 1 42 c0 23 -6 46 -13 50 -10 7 -39 71 -61 137 -4 13 -12 17
-28 13 -12 -4 -28 -1 -35 5 -9 7 -13 7 -13 -1z"/>
<path d="M8366 4785 c-3 -9 6 -41 19 -71 14 -31 25 -67 25 -81 0 -13 7 -40 15
-60 8 -19 15 -45 15 -58 0 -12 3 -24 6 -28 4 -3 16 -35 28 -69 21 -60 44 -81
53 -48 4 12 3 12 -5 1 -13 -18 -25 3 -17 29 4 11 2 20 -4 20 -6 0 -10 11 -9
25 2 15 9 25 18 25 9 0 11 3 5 8 -32 22 -110 209 -122 290 -6 34 -17 42 -27
17z"/>
<path d="M8470 4780 c0 -5 5 -10 10 -10 6 0 10 5 10 10 0 6 -4 10 -10 10 -5 0
-10 -4 -10 -10z"/>
<path d="M8540 4781 c0 -5 5 -13 10 -16 6 -3 10 -2 10 4 0 5 -4 13 -10 16 -5
3 -10 2 -10 -4z"/>
<path d="M8505 4580 c-3 -5 -1 -10 4 -10 6 0 11 5 11 10 0 6 -2 10 -4 10 -3 0
-8 -4 -11 -10z"/>
<path d="M8147 4483 c8 -50 13 -55 13 -10 0 20 -4 38 -9 42 -6 3 -7 -10 -4
-32z"/>
<path d="M8510 4449 c0 -8 10 -20 23 -28 l22 -14 -20 24 c-11 13 -21 26 -22
28 -2 2 -3 -2 -3 -10z"/>
<path d="M8155 4420 c-3 -5 -1 -18 4 -27 9 -16 10 -14 11 10 0 28 -5 34 -15
17z"/>
<path d="M8164 4323 c4 -16 9 -41 12 -58 8 -53 27 -104 35 -99 4 2 7 10 5 17
-2 7 -10 44 -16 84 -8 45 -19 74 -28 78 -11 4 -13 0 -8 -22z"/>
<path d="M8513 4334 c-3 -9 4 -24 18 -37 19 -18 22 -18 16 -3 -4 10 -7 26 -7
37 0 23 -18 25 -27 3z"/>
<path d="M6912 4260 c0 -14 2 -19 5 -12 2 6 2 18 0 25 -3 6 -5 1 -5 -13z"/>
<path d="M8350 4254 c0 -12 21 -44 29 -44 21 0 18 28 -5 39 -13 6 -24 8 -24 5z"/>
<path d="M8470 4250 c0 -5 5 -10 11 -10 5 0 7 5 4 10 -3 6 -8 10 -11 10 -2 0
-4 -4 -4 -10z"/>
<path d="M7560 4091 c0 -5 5 -13 10 -16 6 -3 10 -2 10 4 0 5 -4 13 -10 16 -5
3 -10 2 -10 -4z"/>
</g>
</svg>
